<svg width="20" height="20" viewBox="0 0 20 20" fill="none" xmlns="http://www.w3.org/2000/svg">
<path d="M18.3333 8.37565V7.91728C18.3333 6.76728 17.4 5.83394 16.25 5.83394H16.225C16.0083 2.58394 13.3 0.000610352 10 0.000610352C6.7 0.000610352 3.98333 2.58394 3.775 5.83394H3.75C2.6 5.83394 1.66667 6.76728 1.66667 7.91728V8.37565C0.716667 8.56732 0 9.40894 0 10.4173C0 11.4256 0.716667 12.2672 1.66667 12.4589V12.9173C1.66667 14.0673 2.6 15.0006 3.75 15.0006H5.41667C5.65 15.0006 5.83333 14.8173 5.83333 14.5839V6.25061C5.83333 6.01728 5.65 5.83394 5.41667 5.83394H4.60833C4.825 3.04228 7.15833 0.833944 10 0.833944C12.8417 0.833944 15.1833 3.04228 15.3917 5.83394H14.5833C14.35 5.83394 14.1667 6.01728 14.1667 6.25061V14.5839C14.1667 14.8173 14.35 15.0006 14.5833 15.0006H16.25V15.4173C16.25 16.7923 15.125 17.9173 13.75 17.9173H12.4417C12.2583 17.2006 11.6083 16.6673 10.8333 16.6673C9.91667 16.6673 9.16667 17.4173 9.16667 18.3339C9.16667 19.2506 9.91667 20.0006 10.8333 20.0006C11.6083 20.0006 12.2583 19.4673 12.4417 18.7506H13.75C15.5917 18.7506 17.0833 17.2589 17.0833 15.4173V14.8256C17.8167 14.5006 18.3333 13.7673 18.3333 12.9173V12.4589C19.2833 12.2672 20 11.4256 20 10.4173C20 9.40894 19.2833 8.56732 18.3333 8.37565Z" fill="#D9D9D9"/>
</svg>
