<svg width="24" height="24" viewBox="0 0 24 24" fill="none" xmlns="http://www.w3.org/2000/svg">
<path d="M11.871 14.6523C11.5078 14.6523 11.1685 14.5854 10.853 14.4516C10.5376 14.3178 10.2605 14.1314 10.0215 13.8925C9.78256 13.6535 9.59618 13.3716 9.46237 13.0466C9.32855 12.7216 9.26165 12.3775 9.26165 12.0143C9.26165 11.6511 9.32855 11.3118 9.46237 10.9964C9.59618 10.681 9.78256 10.4038 10.0215 10.1649C10.2605 9.92593 10.5376 9.73955 10.853 9.60573C11.1685 9.47192 11.5078 9.40502 11.871 9.40502C12.5974 9.40502 13.2139 9.6583 13.7204 10.1649C14.227 10.6714 14.4803 11.2879 14.4803 12.0143C14.4803 12.3775 14.4134 12.7216 14.2796 13.0466C14.1458 13.3716 13.9594 13.6535 13.7204 13.8925C13.4815 14.1314 13.2043 14.3178 12.8889 14.4516C12.5735 14.5854 12.2342 14.6523 11.871 14.6523ZM16.0573 12.0143C16.0573 11.8423 16.0478 11.6655 16.0287 11.4839C16.0096 11.3023 15.9809 11.135 15.9427 10.9821H17.1183V16.7455C17.1183 16.8984 17.0705 17.0227 16.9749 17.1183C16.8793 17.2139 16.7551 17.2616 16.6021 17.2616H7.13978C6.98686 17.2616 6.8626 17.2139 6.76702 17.1183C6.67145 17.0227 6.62366 16.8984 6.62366 16.7455V10.9821H7.79928C7.76105 11.135 7.73238 11.3023 7.71326 11.4839C7.69415 11.6655 7.68459 11.8423 7.68459 12.0143C7.68459 12.5878 7.7945 13.1326 8.01434 13.6487C8.23417 14.1649 8.53047 14.6141 8.90323 14.9964C9.27599 15.3787 9.72043 15.6798 10.2366 15.8996C10.7527 16.1195 11.2975 16.2294 11.871 16.2294C12.4444 16.2294 12.9892 16.1195 13.5054 15.8996C14.0215 15.6798 14.466 15.3787 14.8387 14.9964C15.2115 14.6141 15.5078 14.1649 15.7276 13.6487C15.9474 13.1326 16.0573 12.5878 16.0573 12.0143ZM11.9857 0C13.6487 0 15.2067 0.315412 16.6595 0.946237C18.1123 1.57706 19.3835 2.4325 20.4731 3.51254C21.5627 4.59259 22.4229 5.85902 23.0538 7.31183C23.6846 8.76464 24 10.3226 24 11.9857C24 13.6487 23.6846 15.2067 23.0538 16.6595C22.4229 18.1123 21.5627 19.3835 20.4731 20.4731C19.3835 21.5627 18.1123 22.4229 16.6595 23.0538C15.2067 23.6846 13.6487 24 11.9857 24C10.3226 24 8.76464 23.6846 7.31183 23.0538C5.85902 22.4229 4.59259 21.5627 3.51254 20.4731C2.4325 19.3835 1.57706 18.1123 0.946237 16.6595C0.315412 15.2067 0 13.6487 0 11.9857C0 10.3226 0.315412 8.76464 0.946237 7.31183C1.57706 5.85902 2.4325 4.59259 3.51254 3.51254C4.59259 2.4325 5.85902 1.57706 7.31183 0.946237C8.76464 0.315412 10.3226 0 11.9857 0ZM18.6953 6.76702C18.6953 6.32736 18.5424 5.9546 18.2366 5.64875C17.9307 5.34289 17.5579 5.18996 17.1183 5.18996H6.62366C6.18399 5.18996 5.81123 5.34289 5.50538 5.64875C5.19952 5.9546 5.0466 6.32736 5.0466 6.76702V17.2616C5.0466 17.7013 5.19952 18.0741 5.50538 18.3799C5.81123 18.6858 6.18399 18.8387 6.62366 18.8387H17.1183C17.5579 18.8387 17.9307 18.6858 18.2366 18.3799C18.5424 18.0741 18.6953 17.7013 18.6953 17.2616V6.76702ZM16.6021 6.76702C16.7551 6.76702 16.8793 6.81959 16.9749 6.92473C17.0705 7.02987 17.1183 7.1589 17.1183 7.31183V8.88889C17.1183 9.04182 17.0705 9.16607 16.9749 9.26165C16.8793 9.35723 16.7551 9.40502 16.6021 9.40502H15.0251C14.8722 9.40502 14.7431 9.35723 14.638 9.26165C14.5329 9.16607 14.4803 9.04182 14.4803 8.88889V7.31183C14.4803 7.1589 14.5329 7.02987 14.638 6.92473C14.7431 6.81959 14.8722 6.76702 15.0251 6.76702H16.6021Z" fill="#E4E5F9"/>
</svg>
