<svg width="101" height="19" viewBox="0 0 101 19" fill="none" xmlns="http://www.w3.org/2000/svg">
<path d="M9.16088 2.51736C8.74126 2.7671 8.5902 3.17738 8.79162 3.55199C8.99303 3.92659 9.39586 3.98011 9.81548 3.73037C10.2351 3.48064 10.4869 2.92764 10.319 2.60655C10.1512 2.3033 9.59728 2.24979 9.16088 2.51736ZM9.09374 4.47958C8.72448 4.69364 8.60699 5.03257 8.77483 5.3715C8.94268 5.69259 9.29516 5.7461 9.64763 5.53204C10.0001 5.31798 10.2183 4.85419 10.084 4.56877C9.94976 4.28336 9.463 4.26552 9.09374 4.47958ZM8.95947 2.10708C8.53985 2.35682 8.13702 2.3033 7.9356 1.9287C7.73419 1.53625 7.88525 1.16165 8.30486 0.89407C8.72448 0.626495 9.27837 0.662173 9.463 1.0011C9.63085 1.32219 9.37908 1.85734 8.95947 2.10708ZM7.31457 1.19732C6.94531 1.41138 6.60962 1.35787 6.44177 1.03678C6.27392 0.71569 6.39142 0.376761 6.76068 0.144863C7.12994 -0.0691978 7.61669 -0.0513594 7.75097 0.234054C7.90203 0.519468 7.68383 0.965426 7.31457 1.19732ZM8.38879 19C6.45856 19 4.57868 18.2865 3.06806 16.9843C1.57423 15.6821 0.550369 13.8626 0.164323 11.8468C-0.221723 9.83109 0.0803999 7.72616 0.986769 5.90665C1.89314 4.08714 3.38697 2.66007 5.16614 1.87518C5.65289 1.66112 6.20679 1.62544 6.72711 1.78599C7.23065 1.94653 7.68383 2.3033 7.98596 2.7671C8.28808 3.23089 8.42236 3.80172 8.372 4.37255C8.32165 4.94338 8.08666 5.46069 7.7174 5.87098C7.4992 6.10287 7.23065 6.28125 6.94531 6.42396C6.77746 6.51315 6.57605 6.60235 6.4082 6.72721C5.87109 7.06614 5.43469 7.54778 5.13257 8.1186C4.81366 8.68943 4.64582 9.33161 4.62903 9.99163C4.61225 10.6516 4.74652 11.3117 5.03186 11.9003C5.3172 12.489 5.72003 12.9885 6.22357 13.3809C6.72711 13.7555 7.31457 14.0053 7.9356 14.0766C8.55663 14.148 9.17766 14.0588 9.74834 13.8269C10.319 13.5771 10.8393 13.1847 11.2422 12.6852C11.645 12.1858 11.9136 11.5792 12.0478 10.9371C12.0814 10.6695 12.115 10.4019 12.1318 10.1343C12.1318 9.86677 12.1821 9.59919 12.2493 9.33162C12.4339 8.77863 12.7864 8.31483 13.2563 8.01158C13.7263 7.70833 14.2802 7.60129 14.8173 7.69048C15.3544 7.77968 15.8579 8.08293 16.2104 8.52889C16.5629 8.97485 16.7643 9.54567 16.7643 10.1165C16.7643 12.4712 15.8747 14.7366 14.3138 16.4134C12.736 18.0546 10.6044 18.9822 8.38879 19ZM35.3113 3.39144C35.2442 3.39144 35.1603 3.40928 35.1099 3.4628C35.0428 3.51631 35.0092 3.56983 34.9756 3.64118L32.139 12.7209H32.1055L29.2689 3.64118C29.2521 3.56983 29.2017 3.49847 29.1346 3.4628C29.0674 3.40928 29.0003 3.39144 28.9332 3.39144H24.5188C24.4181 3.39144 24.3342 3.42712 24.267 3.49847C24.1999 3.56982 24.1663 3.65902 24.1663 3.76605V16.8772C24.1663 16.9843 24.1999 17.0735 24.267 17.1448C24.3342 17.2162 24.4181 17.2518 24.5188 17.2518H27.1876C27.2883 17.2518 27.3722 17.2162 27.4393 17.1448C27.5065 17.0735 27.54 16.9843 27.54 16.8772V8.54673C27.54 8.52889 27.54 8.49321 27.5568 8.47537C27.5736 8.45753 27.5736 8.4397 27.5904 8.42186C27.6072 8.40402 27.624 8.38618 27.6575 8.38618C27.6743 8.38618 27.7079 8.36835 27.7247 8.36835C27.7582 8.36835 27.8086 8.38618 27.8254 8.40402C27.8589 8.42186 27.8757 8.45753 27.8925 8.49321L30.5613 17.0021C30.5781 17.0735 30.6284 17.1448 30.6955 17.1805C30.7627 17.234 30.8298 17.2518 30.897 17.2518H33.2972C33.3643 17.2518 33.4482 17.234 33.4986 17.1805C33.5657 17.127 33.5993 17.0735 33.6329 17.0021L36.3016 8.49321C36.3184 8.45753 36.3352 8.42186 36.3688 8.40402C36.4023 8.38618 36.4359 8.36835 36.4695 8.36835C36.5198 8.36835 36.5534 8.38618 36.5869 8.42186C36.6205 8.45753 36.6373 8.51105 36.6373 8.54673V16.8772C36.6373 16.9843 36.6709 17.0735 36.738 17.1448C36.8051 17.2162 36.8891 17.2518 36.9898 17.2518H39.6585C39.7592 17.2518 39.8432 17.2162 39.9103 17.1448C39.9774 17.0735 40.011 16.9843 40.011 16.8772V3.76605C40.011 3.65902 39.9774 3.56982 39.9103 3.49847C39.8432 3.42712 39.7592 3.39144 39.6585 3.39144H35.3113ZM56.2082 12.2214C56.2082 13.7734 57.1481 14.7188 58.2055 14.7188C58.558 14.7188 58.8937 14.6474 59.2126 14.5047C59.5315 14.362 59.8169 14.1301 60.0351 13.8626C60.0854 13.7912 60.1693 13.7555 60.2533 13.7377C60.3372 13.7198 60.4211 13.7555 60.505 13.809L62.1667 15.1112C62.2003 15.1469 62.2338 15.1826 62.2674 15.2183C62.2842 15.2539 62.301 15.3075 62.3178 15.361C62.3178 15.4145 62.3178 15.468 62.301 15.5215C62.2842 15.575 62.2674 15.6107 62.2339 15.6464C61.2603 16.8594 59.9008 17.5194 58.1384 17.5194H57.9706C55.1675 17.5194 52.9016 15.3075 52.9016 12.3641V11.9182C52.9016 8.97485 55.1675 6.76289 57.9706 6.76289H58.1384C59.9008 6.76289 61.2603 7.42291 62.2339 8.63592C62.2674 8.6716 62.2842 8.72511 62.301 8.76079C62.3178 8.8143 62.3178 8.86782 62.3178 8.9035C62.3178 8.95701 62.301 9.01052 62.2674 9.0462C62.2506 9.08188 62.2171 9.13539 62.1667 9.15323L60.505 10.4554C60.4379 10.5089 60.354 10.5446 60.2701 10.5268C60.1861 10.5089 60.1022 10.4733 60.0518 10.4019C59.8169 10.1343 59.5483 9.90244 59.2294 9.75973C58.9105 9.61703 58.5748 9.52783 58.2223 9.54567C57.1649 9.54567 56.225 10.4911 56.225 12.043V12.2214H56.2082ZM63.9962 3.71253C63.9962 3.6055 64.0298 3.51631 64.0969 3.44496C64.1641 3.3736 64.248 3.33793 64.3487 3.33793H70.0555C72.9592 3.33793 74.9398 5.1396 74.9398 8.02941V8.22563C74.9398 11.1333 73.0096 12.9706 70.0555 12.9706H67.3699V16.8594C67.3699 16.9664 67.3364 17.0556 67.2692 17.127C67.2021 17.1983 67.1182 17.234 67.0175 17.234H64.3487C64.248 17.234 64.1641 17.1983 64.0969 17.127C64.0298 17.0556 63.9962 16.9664 63.9962 16.8594V3.71253ZM69.5016 10.0095C70.6597 10.0095 71.5493 9.26026 71.5493 8.15428V8.08293C71.5493 7.03047 70.7101 6.28126 69.5855 6.28126H67.3699V9.99163H69.5016V10.0095ZM41.7902 14.4512C41.7902 16.1815 43.1329 17.5373 45.0464 17.5373C46.5234 17.5373 47.3123 16.8594 48.0005 16.3064C48.0341 16.5383 48.0844 16.7524 48.1348 16.9843C48.1516 17.0556 48.2019 17.127 48.269 17.1805C48.3362 17.234 48.4033 17.2518 48.4872 17.2518H50.8035C50.9042 17.2518 50.9882 17.2162 51.0553 17.1448C51.1224 17.0735 51.156 16.9843 51.156 16.8772V11.0619C51.156 8.42186 49.5111 6.72721 46.9263 6.72721H46.6577C45.2142 6.72721 43.7876 7.08398 42.5119 7.79752C42.4616 7.81535 42.428 7.85103 42.3944 7.88671C42.3609 7.92238 42.3441 7.9759 42.3273 8.02941C42.3105 8.08293 42.3105 8.13645 42.3273 8.18996C42.3273 8.24348 42.3441 8.29699 42.3776 8.33267L43.4183 10.0987C43.4686 10.17 43.5358 10.2235 43.6197 10.2592C43.7036 10.277 43.7875 10.277 43.8715 10.2414C44.8785 9.75974 45.6842 9.58135 46.406 9.58135C47.3627 9.58135 47.9166 10.1879 47.9166 11.2225H47.2452C43.4854 11.2046 41.7902 12.1679 41.7902 14.4512ZM44.6436 14.3085C44.6436 13.4344 45.9696 13.149 47.5977 13.149H47.9166V14.2728C47.648 14.5761 47.3291 14.808 46.9766 14.9685C46.6241 15.1291 46.2381 15.2183 45.8521 15.2183C45.231 15.2004 44.6436 14.915 44.6436 14.3085ZM75.6951 14.4512C75.6951 16.1815 77.0379 17.5373 78.9513 17.5373C80.4284 17.5373 81.2173 16.8594 81.9054 16.3064C81.939 16.5383 81.9893 16.7524 82.0397 16.9843C82.0565 17.0556 82.1068 17.127 82.174 17.1805C82.2411 17.234 82.3083 17.2518 82.3922 17.2518H84.7085C84.8092 17.2518 84.8931 17.2162 84.9602 17.1448C85.0274 17.0735 85.0609 16.9843 85.0609 16.8772V11.0619C85.0609 8.42186 83.416 6.72721 80.8312 6.72721H80.5794C79.136 6.72721 77.7261 7.08398 76.4504 7.79752C76.4001 7.81535 76.3665 7.85103 76.3329 7.88671C76.2994 7.92238 76.2826 7.9759 76.2658 8.02941C76.249 8.08293 76.249 8.13645 76.2658 8.18996C76.2658 8.24348 76.2826 8.29699 76.3161 8.33267L77.3568 10.0987C77.4071 10.17 77.4743 10.2235 77.5582 10.2592C77.6421 10.277 77.7261 10.277 77.81 10.2414C78.8171 9.75974 79.6227 9.58135 80.3445 9.58135C81.3012 9.58135 81.8551 10.1879 81.8551 11.2225H81.1837C77.3904 11.2046 75.6951 12.1679 75.6951 14.4512ZM78.5485 14.3085C78.5485 13.4344 79.8745 13.149 81.5026 13.149H81.8215V14.2728C81.5529 14.5761 81.234 14.808 80.8816 14.9685C80.5291 15.1291 80.143 15.2183 79.757 15.2183C79.1527 15.2004 78.5485 14.915 78.5485 14.3085ZM90.432 13.3274L91.8587 7.19101C91.8755 7.10182 91.9258 7.03047 91.9762 6.99479C92.0433 6.94127 92.1105 6.92344 92.1944 6.92344H94.5946C94.6785 6.92344 94.7457 6.95911 94.8128 6.99479C94.8799 7.0483 94.9135 7.11966 94.9303 7.19101L96.3738 13.3274C96.3905 13.3631 96.4073 13.3988 96.4409 13.4344C96.4745 13.4523 96.508 13.4701 96.5584 13.4701C96.6087 13.4701 96.6423 13.4523 96.6759 13.4166C96.7095 13.3809 96.7262 13.3452 96.743 13.3096L97.4983 7.24453C97.5151 7.15533 97.5487 7.06614 97.6158 7.01263C97.683 6.95911 97.7669 6.92344 97.8508 6.92344H100.352C100.402 6.92344 100.452 6.94127 100.503 6.95911C100.553 6.97695 100.587 7.01263 100.62 7.06614C100.654 7.10182 100.671 7.15534 100.687 7.20885C100.704 7.26237 100.704 7.31588 100.687 7.3694L98.7572 16.9486C98.7404 17.0378 98.69 17.1091 98.6397 17.1627C98.5725 17.2162 98.4886 17.2518 98.4047 17.2518H95.2828C95.1988 17.2518 95.1317 17.234 95.0646 17.1805C94.9974 17.127 94.9639 17.0556 94.9303 16.9843L93.4197 11.383H93.3525L91.8419 16.9843C91.8251 17.0556 91.7748 17.127 91.7076 17.1805C91.6405 17.234 91.5734 17.2518 91.4894 17.2518H88.3507C88.2668 17.2518 88.1829 17.2162 88.1325 17.1627C88.0654 17.1091 88.0318 17.0378 88.015 16.9486L86.1184 7.3694C86.1016 7.31588 86.1016 7.26237 86.1184 7.20885C86.1351 7.15534 86.1519 7.10182 86.1855 7.06614C86.2191 7.03047 86.2694 6.99479 86.303 6.95911C86.3533 6.94127 86.4037 6.92344 86.454 6.92344H88.9717C89.0557 6.92344 89.1396 6.95911 89.2067 7.01263C89.2739 7.06614 89.3074 7.15533 89.3242 7.24453L90.0795 13.3096C90.0795 13.3631 90.1131 13.3988 90.1467 13.4166C90.1802 13.4523 90.2138 13.4701 90.2642 13.4701C90.2977 13.4701 90.3481 13.4523 90.3649 13.4344C90.3984 13.3988 90.432 13.3631 90.432 13.3274Z" fill="#EFF0FF"/>
</svg>
