<svg width="85" height="18" viewBox="0 0 85 18" fill="none" xmlns="http://www.w3.org/2000/svg">
<path d="M15.6283 17.638H11.6339V16.7142C11.0222 17.1137 10.3731 17.4507 9.66159 17.6629C8.95009 17.8751 8.18864 18 7.38974 18C6.59086 18 5.41748 17.8127 4.53121 17.4133C3.64496 17.0138 2.84605 16.4896 2.1595 15.8405C1.48544 15.1664 0.961167 14.3925 0.586686 13.5062C0.18724 12.6199 0 11.6587 0 10.6102C0 9.56167 0.18724 8.61297 0.586686 7.71422C0.986132 6.82794 1.5104 6.05401 2.1595 5.37996C2.8086 4.70589 3.60751 4.18161 4.53121 3.80714C5.41748 3.40768 6.40361 3.22046 7.38974 3.22046C8.37589 3.22046 8.92512 3.34528 9.66159 3.55748C10.3731 3.76969 11.0097 4.10674 11.6339 4.50616V3.58246H15.6283V17.6005V17.638ZM7.81416 14.38C8.33844 14.38 8.82526 14.2926 9.28712 14.0679C9.74897 13.8557 10.1484 13.5811 10.4854 13.2316C10.8225 12.8945 11.0971 12.4951 11.3218 12.0332C11.534 11.5714 11.6339 11.0845 11.6339 10.5603C11.6339 10.036 11.5465 9.54917 11.3218 9.08732C11.1096 8.62547 10.835 8.22602 10.4854 7.88897C10.1484 7.55194 9.74897 7.27732 9.28712 7.05264C8.82526 6.84044 8.33844 6.74057 7.81416 6.74057C7.28989 6.74057 6.80306 6.82794 6.34121 7.05264C5.87933 7.26484 5.47991 7.53947 5.14286 7.88897C4.80583 8.22602 4.53121 8.62547 4.34398 9.08732C4.15673 9.54917 4.06936 10.036 4.06936 10.5603C4.06936 11.0845 4.15673 11.5714 4.34398 12.0332C4.53121 12.4951 4.80583 12.8945 5.14286 13.2316C5.47991 13.5686 5.87933 13.8432 6.34121 14.0679C6.80306 14.2801 7.28989 14.38 7.81416 14.38Z" fill="#EFF0FF"/>
<path d="M23.2234 7.15276V12.3206C23.2234 12.7824 23.3732 13.1819 23.7103 13.5189C24.0473 13.831 24.4468 14.0057 24.9085 14.0057H25.745V17.6382H24.272C23.5605 17.6382 22.8864 17.5134 22.2748 17.2388C21.6631 16.9641 21.1388 16.5897 20.677 16.1278C20.2151 15.6659 19.8406 15.1167 19.566 14.53C19.2914 13.9184 19.1666 13.2693 19.1666 12.5328V7.17771H16.67V3.54525H19.1666V0.0251465H23.1985V3.55773H25.745V7.19018H23.1985L23.2234 7.16523V7.15276Z" fill="#EFF0FF"/>
<path d="M62.5516 14.018C62.0899 14.018 61.6654 13.8683 61.3534 13.5312C61.0164 13.2192 60.8666 12.8197 60.8666 12.3329V0H56.8346V12.7573C56.8346 13.3689 56.9843 13.9557 57.2341 14.5049C57.5086 15.1165 57.8831 15.6408 58.3451 16.1027C58.8069 16.5645 59.3561 16.939 59.9428 17.2136C60.5544 17.4882 61.2036 17.6131 61.9401 17.6131H63.4131V14.018H62.5516Z" fill="#EFF0FF"/>
<path d="M68.4868 14.018V0H64.4548V17.6131H71.0333V14.018H68.4868Z" fill="#EFF0FF"/>
<path d="M55.7796 10.0236C55.5299 6.32871 52.5466 3.29541 48.9266 3.23298C43.9086 3.14561 38.9031 3.20803 33.8851 3.23298C33.3358 3.23298 32.7491 3.29541 32.2248 3.44521C28.7171 4.30651 26.3828 7.75171 26.8448 11.3467C27.2193 14.1179 29.5786 17.6131 33.9223 17.6131H41.2373C41.2373 17.6131 44.5326 17.638 46.1554 17.6131C47.3539 17.6131 48.5521 17.6131 49.7256 17.4882C53.3579 17.0014 56.0044 13.6186 55.7796 10.0111V10.0236ZM49.9376 13.344C49.4759 13.5312 48.9516 13.656 48.4649 13.656H34.0473C32.0751 13.656 30.6643 12.2704 30.6643 10.398C30.6643 8.52564 32.1123 7.16504 34.0723 7.16504H48.6146C50.1499 7.16504 51.4731 8.27599 51.7476 9.71152C52.0599 11.2219 51.3234 12.7198 49.9376 13.344Z" fill="#EFF0FF"/>
<path d="M72.2122 7.31479C72.2122 6.60326 72.3995 5.99161 72.7365 5.46733C73.111 4.94306 73.5355 4.51866 74.1222 4.14418C74.6712 3.80716 75.3205 3.53253 76.032 3.37026C76.7435 3.18301 77.48 3.12061 78.2165 3.12061C78.953 3.12061 79.6645 3.18301 80.3135 3.33281C80.9875 3.48261 81.5992 3.70728 82.161 4.04431C82.7102 4.35638 83.2095 4.75583 83.609 5.21768C84.0085 5.67953 84.3205 6.26624 84.4952 6.90286L81.0875 8.03876C80.9002 7.66429 80.6255 7.36471 80.2012 7.09009C79.7767 6.81546 79.215 6.66569 78.5035 6.62824C77.9167 6.62824 77.455 6.62824 77.093 6.75306C76.7185 6.87789 76.5062 7.06514 76.4812 7.33974C76.4565 7.65181 76.6062 7.88899 76.9682 8.07621C77.3427 8.26346 77.8295 8.45071 78.4162 8.60049C79.0027 8.78774 79.652 8.97497 80.3885 9.18719C81.1 9.39939 81.774 9.67402 82.3857 10.0485C82.9972 10.423 83.5215 10.8848 83.921 11.4965C84.3205 12.0832 84.5327 12.8446 84.5327 13.7434C84.5327 14.6421 84.3455 15.0291 84.0085 15.5534C83.634 16.0776 83.172 16.5395 82.6227 16.8765C82.0362 17.251 81.362 17.5256 80.6505 17.7129C79.939 17.9001 79.2025 17.9625 78.466 17.9625C77.7295 17.9625 77.0555 17.8751 76.344 17.6879C75.6325 17.5007 75.0582 17.226 74.4717 16.889C73.885 16.5769 73.4229 16.1775 73.0237 15.7156C72.6242 15.2538 72.2497 14.7295 72.075 13.993L75.645 12.8571C75.957 13.4438 76.1692 13.656 76.5937 13.968C77.018 14.2801 77.5425 14.4549 78.104 14.5173C78.566 14.5422 79.0277 14.5173 79.4897 14.4299C79.9515 14.3425 80.2262 14.1178 80.326 13.8432C80.4135 13.5062 80.2635 13.2316 79.9265 13.0443C79.5895 12.8571 79.1027 12.6698 78.4785 12.52C77.867 12.3328 77.2177 12.1456 76.4812 11.9334C75.7697 11.7212 75.0957 11.4465 74.4467 11.0721C73.835 10.6976 73.3107 10.2108 72.8737 9.62407C72.4494 9.01241 72.2247 8.27594 72.2247 7.31479H72.2122Z" fill="#EFF0FF"/>
</svg>
