<svg width="101" height="16" viewBox="0 0 101 16" fill="none" xmlns="http://www.w3.org/2000/svg">
<path d="M49.7002 13.6839C49.5356 13.3102 49.3709 12.9508 49.2063 12.6043C48.9352 11.9719 48.7063 11.4364 48.5198 10.9978L45.7044 4.42471C45.2126 3.29938 44.7231 2.04949 44.2357 0.675049H38.5869L38.1786 1.93185C38.2935 1.9385 38.4079 1.95237 38.5211 1.97338C38.877 2.05207 39.218 2.18407 39.532 2.36463C39.885 2.54893 40.2163 2.77009 40.5198 3.02417L38.2428 8.46341C37.9563 9.16289 37.6199 9.91131 37.2335 10.7088C36.8472 11.5061 36.4746 12.2604 36.1156 12.9716C35.9444 13.3027 35.7655 13.6322 35.5789 13.9601C35.3923 14.288 35.2277 14.5904 35.085 14.8672V15.0939H37.7192L38.0057 13.8164C38.2054 12.9944 38.4494 12.1831 38.7367 11.3858C38.7943 11.2262 38.8437 11.0904 38.8865 10.9531C38.9294 10.8157 39.0018 10.6704 39.0594 10.5203H44.9025L45.1001 10.9993V11.0121L46.2724 13.8244L46.8041 15.1019H50.4592L50.9531 13.5769L50.8741 13.4507C50.5596 13.5274 50.1678 13.6104 49.7002 13.6839ZM39.532 9.22516L41.7875 3.41543C42.0152 3.75031 42.2161 4.1016 42.3885 4.46623C42.5893 4.8644 42.7973 5.33125 43.0125 5.86676L43.0553 5.94979C43.0701 5.97694 43.0833 6.0041 43.0981 6.03284L44.4514 9.22677L39.532 9.22516Z" fill="#EFF0FF"/>
<path d="M84.7211 13.6886C84.6893 13.0499 84.6734 12.352 84.6734 11.5951V4.17717C84.6734 3.69703 84.6948 3.12052 84.7376 2.44767C84.7673 1.74714 84.7892 1.22493 84.8035 0.881056V0.675049H80.8274L76.746 10.0284L73.9322 4.07497C73.6742 3.54265 73.3735 2.84212 73.03 1.97338C72.9362 1.75299 72.8571 1.53421 72.7715 1.31383C72.6859 1.09345 72.6068 0.881056 72.513 0.675049H66.5859L66.2566 1.89033C66.3959 1.93006 66.5322 1.9786 66.6649 2.03566C66.8041 2.07486 66.9405 2.12287 67.0732 2.17939C67.3449 2.28928 67.6102 2.41295 67.8685 2.54987C68.1255 2.6886 68.3696 2.8489 68.5978 3.02897V6.90318C68.59 8.40504 68.49 9.90512 68.2982 11.3954C68.1694 12.5686 67.977 13.7344 67.722 14.888V15.0939H70.0862V3.86896C70.2016 4.02318 70.3088 4.18308 70.4072 4.34805C70.5219 4.51125 70.6227 4.68322 70.7085 4.86227L75.7581 15.1019H76.1236L81.4299 3.08645V11.5951C81.4299 12.8438 81.3872 13.9426 81.3016 14.8912V15.0972H85.5112L86.005 13.5721L85.9201 13.4491C85.602 13.529 85.1999 13.6104 84.7211 13.6886Z" fill="#EFF0FF"/>
<path d="M10.0547 1.19087C9.09535 0.846988 7.9423 0.675049 6.59553 0.675049H0.493925L0 2.17939L0.0856139 2.30235C0.414896 2.23421 0.794669 2.15862 1.22493 2.07558C1.52872 2.00958 1.83768 1.96845 2.14857 1.95261V9.5142V11.5902C2.14857 12.8391 2.10577 13.9378 2.02015 14.8863V15.0924H5.54348V14.888C5.45786 13.9394 5.41506 12.8407 5.41506 11.5918V9.51581V9.26664H6.59553C7.9423 9.26664 9.09476 9.09474 10.053 8.75086C11.0112 8.40698 11.7489 7.91299 12.2658 7.26888C12.7844 6.61595 13.058 5.81094 13.0412 4.98683C13.062 4.15505 12.7889 3.34139 12.2675 2.68083C11.7669 2.03033 11.0294 1.53368 10.0547 1.19087ZM9.1096 7.20661C8.53662 7.73892 7.74912 8.00508 6.74701 8.00508H5.41506V2.05482H6.7503C7.75351 2.05482 8.54103 2.33003 9.11291 2.88045C9.68479 3.43086 9.9712 4.15163 9.9723 5.04273C9.9701 5.94979 9.68259 6.67109 9.1096 7.20661Z" fill="#EFF0FF"/>
<path d="M28.083 13.6966L27.9447 13.719C27.7801 13.5146 27.6154 13.3102 27.4508 13.0978C26.9783 12.459 24.372 8.80196 24.372 8.80196H22.2991C23.0247 8.68015 23.738 8.49795 24.4312 8.2574C25.2455 7.97291 25.9707 7.49007 26.537 6.85527C27.0306 6.28443 27.297 5.56093 27.2878 4.81596C27.3051 4.01243 27.0226 3.22986 26.4926 2.61216C25.9636 1.97977 25.1952 1.50068 24.1876 1.1749C23.18 0.849117 21.9864 0.682501 20.6067 0.675049H14.5265L14.0325 2.17939L14.1182 2.30235C14.4474 2.23421 14.8272 2.15862 15.2574 2.07558C15.5612 2.00948 15.8702 1.96834 16.1811 1.95261V11.5951C16.1811 12.8438 16.1378 13.9426 16.051 14.8912V15.0972H19.5546V14.888C19.4822 13.8435 19.4459 12.7448 19.4459 11.5918V8.95687H20.5803C20.6791 8.95687 20.7779 8.95687 20.8767 8.95687L24.9762 15.0972H28.9276L29.4216 13.5721L29.3359 13.4491C29.0023 13.5311 28.5846 13.6136 28.083 13.6966ZM20.6923 7.66014H19.4459V2.05482H20.6923C21.7679 2.05482 22.6059 2.30927 23.2063 2.81817C23.5098 3.0678 23.7506 3.38116 23.9107 3.73449C24.0707 4.08782 24.1457 4.47186 24.13 4.85748C24.13 5.72303 23.8292 6.40972 23.2278 6.91755C22.6263 7.42539 21.7811 7.67292 20.6923 7.66014Z" fill="#EFF0FF"/>
<path d="M64.6332 13.6966L64.4949 13.719C64.3303 13.5146 64.1657 13.3102 64.001 13.0978C63.5285 12.459 60.9238 8.80196 60.9238 8.80196H58.8511C59.576 8.68002 60.2888 8.49783 60.9815 8.2574C61.7958 7.97291 62.5209 7.49007 63.0873 6.85527C63.5813 6.28458 63.8482 5.56111 63.8397 4.81596C63.857 4.01243 63.5746 3.22986 63.0444 2.61216C62.5143 1.97977 61.746 1.50068 60.7395 1.1749C59.7329 0.849117 58.5388 0.682501 57.1569 0.675049H51.0767L50.5828 2.17939L50.6684 2.30235C50.9976 2.23421 51.3774 2.15862 51.8077 2.07558C52.1114 2.00958 52.4204 1.96845 52.7313 1.95261V11.5951C52.7313 12.8438 52.6885 13.9426 52.6029 14.8912V15.0972H56.1048V14.888C56.0324 13.8435 55.9962 12.7448 55.9962 11.5918V8.95687H57.1305C57.2293 8.95687 57.3281 8.95687 57.4269 8.95687L61.5264 15.0972H65.4778L65.9718 13.5721L65.8862 13.4491C65.5525 13.5311 65.1349 13.6136 64.6332 13.6966ZM57.2425 7.66014H55.9962V2.05482H57.2425C58.317 2.05482 59.1551 2.30927 59.7566 2.81817C60.06 3.0678 60.3008 3.38116 60.4609 3.73449C60.6209 4.08782 60.6959 4.47186 60.6802 4.85748C60.6802 5.72303 60.3795 6.40972 59.778 6.91755C59.1765 7.42539 58.3313 7.67292 57.2425 7.66014Z" fill="#EFF0FF"/>
<path d="M96.6578 0.675049L96.2065 2.11231L96.2922 2.21611C96.3778 2.20174 96.4712 2.18896 96.5721 2.17459C96.6705 2.14758 96.7706 2.12678 96.8716 2.11231C97.1151 2.07079 97.3653 2.03725 97.6029 2.0101C97.8014 1.97596 98.0025 1.95673 98.2035 1.95261C98.0389 2.25444 97.8743 2.60577 97.6665 3.00342C97.4595 3.40106 97.2737 3.81307 97.0447 4.23946C96.9149 4.49976 96.3863 5.48987 96.2489 5.72303L94.7447 8.27816L91.2215 1.95261L90.5097 0.675049H86.6887V0.881056C86.8881 1.17011 87.0824 1.45117 87.2681 1.72584L87.8264 2.54987C88.472 3.52615 89.0752 4.49444 89.6376 5.45474L92.2599 9.94694V11.5951C92.2599 12.7481 92.2166 13.8468 92.1301 14.8912V15.0972H95.6533V14.888C95.5685 13.9671 95.5261 12.9024 95.5252 11.6941V9.55577L97.759 5.846C98.0881 5.29664 98.4682 4.67862 98.8983 3.99193C99.3284 3.30524 99.7441 2.66645 100.145 2.07558C100.46 1.59543 100.734 1.19033 100.968 0.860296V0.675049H96.6578Z" fill="#EFF0FF"/>
</svg>
