<svg width="113" height="19" viewBox="0 0 113 19" fill="none" xmlns="http://www.w3.org/2000/svg">
<path d="M56.2682 18.6062C60.0839 18.6062 62.6259 16.1335 62.6259 11.9603V1.2854H58.4527V11.7932C58.4527 13.7356 57.7553 14.6982 56.2912 14.6982C54.8791 14.6982 54.2738 13.7126 54.2738 11.7932V1.2854H50.0776V11.9603C50.0834 16.2257 52.4063 18.6062 56.2682 18.6062Z" fill="#EFF0FF"/>
<path d="M73.8082 2.21917C72.6554 1.40644 71.2893 1.2854 69.4909 1.2854H63.8307V18.3411H68.0038V12.848H69.2027C70.9781 12.848 72.3211 12.727 73.4047 12.0814C75.1051 11.0496 76.1138 9.2282 76.1138 7.02059C76.1138 4.88214 75.3241 3.27398 73.8082 2.21917ZM68.8223 9.15327H68.0557V5.10117H69.1566C71.0069 5.10117 71.8945 5.67757 71.8945 7.08975C71.8888 8.62298 70.8858 9.15327 68.8223 9.15327Z" fill="#EFF0FF"/>
<path d="M99.1928 8.84201L105.55 18.3411H109.216V1.2854H105.049V10.7614L98.7836 1.2854H95.0197V18.3411H99.1928V8.84201Z" fill="#EFF0FF"/>
<path d="M46.3599 3.49275C44.7056 1.86153 42.5499 0.973877 40.2674 0.973877C37.8465 0.973877 35.7311 1.81542 34.0538 3.46969C32.3764 5.12396 31.46 7.28546 31.46 9.63718C31.46 12.156 32.2784 14.2657 33.8808 15.9718C35.5582 17.7471 37.7197 18.6578 40.2385 18.6578C42.6133 18.6578 44.867 17.7241 46.5213 15.9949C48.1295 14.3406 48.9941 12.156 48.9941 9.71211C48.9998 7.37769 48.0891 5.19313 46.3599 3.49275ZM40.2443 14.4328C37.8926 14.4328 35.7599 12.3693 35.7599 9.68329C35.7599 7.18747 37.7485 5.19889 40.2962 5.19889C42.694 5.19889 44.6884 7.18747 44.6884 9.68329C44.6826 12.4615 42.694 14.4328 40.2443 14.4328Z" fill="#EFF0FF"/>
<path d="M91.5612 3.49275C89.9069 1.86153 87.7454 0.973877 85.4687 0.973877C83.042 0.973877 80.9324 1.81542 79.2551 3.46969C77.5777 5.12396 76.6613 7.28546 76.6613 9.63718C76.6613 12.156 77.4797 14.2657 79.0821 15.9718C80.7652 17.7471 82.921 18.6578 85.4398 18.6578C87.8146 18.6578 90.0683 17.7241 91.7226 15.9949C93.3308 14.3406 94.1954 12.156 94.1954 9.71211C94.2011 7.37769 93.2904 5.19313 91.5612 3.49275ZM85.4456 14.4328C83.0939 14.4328 80.9612 12.3693 80.9612 9.68329C80.9612 7.18747 82.9556 5.19889 85.4975 5.19889C87.8953 5.19889 89.8896 7.18747 89.8896 9.68329C89.8839 12.4615 87.8895 14.4328 85.4456 14.4328Z" fill="#EFF0FF"/>
<path d="M2.41515 15.9662C4.09247 17.7415 6.23092 18.6753 8.74979 18.6753C11.6548 18.6753 14.387 17.2343 16.0182 14.8595C17.0038 13.4185 17.4823 11.7873 17.4823 9.8679C17.4823 9.51053 17.4592 9.12434 17.4361 8.73815H7.71803V12.1447H12.5886C11.7471 13.6318 10.3349 14.4503 8.74979 14.4503C6.39808 14.4503 4.28845 12.3637 4.28845 9.64886C4.28845 7.19916 6.25398 5.16447 8.74979 5.16447C10.0928 5.16447 11.1937 5.71781 12.2543 6.81874H17.0038C15.6378 3.17012 12.4445 0.939453 8.80167 0.939453C6.38078 0.939453 4.27116 1.80405 2.58807 3.45832C0.910743 5.11259 3.04447e-05 7.27409 3.04447e-05 9.62581C-0.00573356 12.1504 0.806991 14.2601 2.41515 15.9662Z" fill="#EFF0FF"/>
<path d="M26.9525 12.4849C29.3733 11.8105 30.8143 9.75272 30.8143 6.99177C30.8143 4.88214 30.0247 3.27398 28.5087 2.21917C27.3559 1.40644 25.9899 1.2854 24.1915 1.2854H18.5312V18.3411H22.7044V12.848L25.9668 18.3411H31.1256L26.9525 12.4849ZM23.5229 9.15327H22.7102V5.10117H23.863C25.7074 5.10117 26.5951 5.67757 26.5951 7.08975C26.5951 8.62298 25.5864 9.15327 23.5229 9.15327Z" fill="#EFF0FF"/>
<path d="M111.724 3.44672C112.081 3.44672 112.387 3.31991 112.635 3.0663C112.888 2.81268 113.009 2.50719 113.009 2.15559C113.009 1.79822 112.882 1.49849 112.635 1.25064C112.387 1.00278 112.081 0.875977 111.724 0.875977C111.372 0.875977 111.067 1.00278 110.819 1.25064C110.565 1.50425 110.444 1.80398 110.444 2.15559C110.444 2.51295 110.571 2.81845 110.819 3.0663C111.067 3.31991 111.366 3.44672 111.724 3.44672ZM110.946 1.37168C111.165 1.15265 111.424 1.04313 111.73 1.04313C112.035 1.04313 112.3 1.15265 112.513 1.37168C112.727 1.58495 112.836 1.85009 112.836 2.15559C112.836 2.46108 112.727 2.72622 112.513 2.94525C112.3 3.16429 112.041 3.2738 111.73 3.2738C111.424 3.2738 111.159 3.16429 110.946 2.94525C110.732 2.72622 110.623 2.46684 110.623 2.15559C110.623 1.85009 110.727 1.59071 110.946 1.37168Z" fill="#EFF0FF"/>
<path d="M112.294 2.83581C112.289 2.82428 112.283 2.80122 112.283 2.76087C112.283 2.72629 112.277 2.68594 112.277 2.65712V2.55337C112.277 2.4842 112.254 2.40927 112.202 2.33434C112.15 2.25941 112.07 2.21329 111.96 2.196C112.047 2.18447 112.116 2.16142 112.162 2.12683C112.254 2.06919 112.3 1.97121 112.3 1.85016C112.3 1.67148 112.225 1.55043 112.081 1.49279C112 1.45821 111.874 1.44092 111.695 1.44092H111.199V2.8531H111.447V2.29975H111.643C111.776 2.29975 111.868 2.31705 111.92 2.34587C112.012 2.39774 112.052 2.50726 112.052 2.66865V2.77817L112.058 2.82428C112.058 2.83004 112.058 2.83581 112.058 2.84157C112.058 2.84734 112.058 2.8531 112.064 2.8531H112.294V2.83581ZM111.92 2.09225C111.868 2.11531 111.787 2.12107 111.683 2.12107H111.459V1.60807H111.672C111.81 1.60807 111.908 1.62537 111.972 1.65995C112.035 1.69453 112.064 1.7637 112.064 1.86745C112.064 1.98273 112.012 2.05767 111.92 2.09225Z" fill="#EFF0FF"/>
</svg>
