<svg width="89" height="20" viewBox="0 0 89 20" fill="none" xmlns="http://www.w3.org/2000/svg">
<path d="M43.0024 2.35821V11.6401C43.0024 17.5095 38.3956 19.4205 36.3017 19.9665C35.7433 20.103 34.9057 19.83 34.6265 19.011C34.4869 18.3285 34.9057 17.646 35.6037 17.373C37.6976 16.827 40.2104 15.3255 40.2104 11.6401V2.35821C40.2104 1.67572 40.7688 0.993232 41.6064 0.993232C42.3044 0.993232 43.0024 1.53922 43.0024 2.35821ZM19.6895 13.6876C20.2479 14.7796 19.1311 16.281 17.7351 15.462C17.7351 15.462 12.4304 12.0496 8.52162 10.5481L6.14845 14.916C6.00885 15.3255 5.03166 16.008 4.19407 15.462C-2.36704 11.7766 -1.11066 4.54219 7.12563 6.99915L10.476 0.720235C11.174 -0.37175 12.57 -0.098754 12.9888 0.720235L19.6895 13.6876ZM5.86925 9.59262C0.564518 8.09114 3.35648 11.6401 4.47327 12.3226L5.86925 9.59262ZM14.9431 10.5481L11.5928 4.40569L9.778 8.09114C11.0344 8.50063 13.8263 10.0021 14.9431 10.5481ZM35.8829 8.22764C35.8829 12.3226 32.5325 15.5985 28.3446 15.5985H23.8774C23.0398 15.5985 22.4814 14.916 22.4814 14.2336V2.35821C22.4814 1.53922 23.1794 0.993232 23.8774 0.993232H28.3446C32.5325 0.993232 35.8829 4.26919 35.8829 8.22764ZM33.0909 8.22764C33.0909 5.77067 30.9969 3.7232 28.4842 3.7232H25.413V12.8686H28.4842C30.9969 12.8686 33.0909 10.8211 33.0909 8.22764ZM57.6602 2.35821V9.18312C57.6602 11.3671 56.1246 12.8686 53.891 12.8686C51.6575 12.8686 50.1219 11.3671 50.1219 9.18312V2.35821C50.1219 0.583737 47.3299 0.583737 47.3299 2.35821V9.18312C47.3299 12.8686 50.1219 15.5985 53.891 15.5985C57.6602 15.5985 60.4522 12.8686 60.4522 9.18312V2.35821C60.4522 0.583737 57.6602 0.583737 57.6602 2.35821ZM87.5342 0.993232H77.2039C75.3892 0.993232 75.3892 3.7232 77.2039 3.7232H80.9731V14.2336C80.9731 16.008 83.7651 16.008 83.7651 14.2336V3.7232H87.5342C89.4886 3.7232 89.4886 0.993232 87.5342 0.993232ZM66.0361 4.54219C66.1757 3.3137 68.6885 2.63121 70.7824 4.40569C72.1784 5.49767 73.9932 3.85969 72.7368 2.35821C70.3636 -0.235252 63.2441 -0.0987542 63.2441 4.81518C63.2441 10.0021 71.4804 8.91013 70.6428 11.9131C70.224 13.2781 67.0133 13.8241 65.4777 11.7766C64.2213 10.0021 61.9877 11.7766 63.1045 13.2781C66.3153 17.7825 73.5744 15.8715 73.5744 11.5036C73.5744 6.45316 65.8965 7.40865 66.0361 4.54219Z" fill="#EFF0FF"/>
</svg>
