<svg width="42" height="25" viewBox="0 0 42 25" fill="none" xmlns="http://www.w3.org/2000/svg">
<path fill-rule="evenodd" clip-rule="evenodd" d="M27.5352 24.8598H21.8423V0.943115H27.5352V24.8598ZM19.8091 12.9304C19.8091 18.3746 15.3734 22.7801 9.90827 22.7801C4.44317 22.7801 0 18.3672 0 12.9304C0 7.49348 4.43576 3.08062 9.90086 3.08062C15.366 3.08062 19.8091 7.48611 19.8091 12.9304ZM12.8962 12.9304C12.8962 11.2849 11.5592 9.95529 9.90452 9.95529C8.24985 9.95529 6.91281 11.2849 6.91281 12.9304C6.91281 14.5759 8.24985 15.9056 9.90452 15.9056C11.5592 15.9056 12.8962 14.5759 12.8962 12.9304ZM41.9852 6.95123H38.2015L35.9802 9.15893L33.7588 6.95123H29.9751V10.7779L32.1668 12.9562L29.9751 15.1344V18.9096H33.818L35.9876 16.7534L38.1571 18.9096H42V15.1344L39.8083 12.9562L42 10.7779V6.95123H41.9852Z" fill="#EFF0FF"/>
</svg>
