<svg width="89" height="21" viewBox="0 0 89 21" fill="none" xmlns="http://www.w3.org/2000/svg">
<path d="M46.3231 14.8391C46.5679 16.2 47.8068 17.3538 49.1099 17.5602C50.7861 17.8252 52.2652 17.3865 53.6144 16.398C53.6748 16.3538 53.739 16.3158 53.8357 16.2526C54.3078 17.056 54.7777 17.845 55.2287 18.6446C55.2619 18.704 55.1849 18.8754 55.1116 18.9401C54.1968 19.7474 53.1415 20.3086 51.9668 20.5942C49.5963 21.1692 47.3603 20.8577 45.3978 19.3239C43.9648 18.2037 43.0741 16.7224 42.7999 14.8886C42.5234 13.0365 42.7584 11.2849 43.7366 9.65971C45.2172 7.19986 48.0364 5.89912 50.8428 6.39642C53.3651 6.84421 55.2362 8.67806 55.7839 11.2103C56.0302 12.348 56.006 13.4759 55.7522 14.6023C55.731 14.6959 55.5913 14.7843 55.487 14.8307C55.4024 14.868 55.2891 14.8391 55.1879 14.8391C52.3929 14.8391 49.5986 14.8391 46.8036 14.8391C46.654 14.8391 46.5037 14.8391 46.3224 14.8391H46.3231ZM52.4337 12.1493C52.4979 10.7335 51.4312 9.41906 49.7474 9.32082C47.8257 9.20887 46.6253 10.6855 46.3451 12.1493H52.4329H52.4337Z" fill="#EFF0FF"/>
<path d="M32.4153 20.5028H28.8566V6.61796H32.1131V7.86844C32.401 7.64759 32.6042 7.49223 32.8066 7.33611C34.6717 5.89676 37.9585 5.91503 39.6053 7.70242C40.4597 8.62924 40.9779 9.73503 41.0058 10.9825C41.0761 14.1034 41.0647 17.2258 41.0859 20.3474C41.0859 20.384 41.0731 20.4213 41.0602 20.4906H37.537C37.5287 20.3459 37.5128 20.1997 37.5128 20.0534C37.5113 17.6035 37.5219 15.1535 37.503 12.7036C37.4992 12.2284 37.4577 11.7303 37.3096 11.2848C36.9395 10.1729 35.9559 9.58881 34.7367 9.67106C33.6814 9.74188 32.7749 10.5156 32.5158 11.591C32.4516 11.859 32.4206 12.1416 32.4198 12.4173C32.4123 14.9563 32.4153 17.4946 32.4153 20.0336C32.4153 20.1821 32.4153 20.3314 32.4153 20.5043V20.5028Z" fill="#EFF0FF"/>
<path d="M62.5871 3.11415C62.5871 3.85972 62.5871 4.55502 62.5871 5.24957C62.5871 5.59227 62.6014 5.93574 62.5826 6.27768C62.5675 6.5625 62.6793 6.65465 62.9542 6.6516C63.9483 6.64094 64.9432 6.66455 65.9366 6.63866C66.2999 6.62952 66.383 6.7567 66.3755 7.09483C66.3558 7.96758 66.3687 8.8411 66.3687 9.76259H62.6249C62.609 9.91642 62.5879 10.0253 62.5879 10.1335C62.5871 11.8721 62.6249 13.6115 62.5795 15.3494C62.5312 17.1825 63.8713 17.5922 65.2484 17.5069C65.6865 17.4795 66.1247 17.4353 66.5636 17.4315C66.6399 17.4315 66.7826 17.5907 66.7842 17.6783C66.8008 18.5411 66.8 19.404 66.7857 20.2668C66.7842 20.3605 66.6829 20.5151 66.6029 20.5349C64.7763 20.9781 62.9625 21.0764 61.2342 20.1625C60.0965 19.5608 59.3955 18.583 59.1628 17.3203C59.017 16.5283 58.9641 15.7119 58.949 14.9047C58.9181 13.3061 58.9354 11.7069 58.949 10.1076C58.9513 9.85474 58.8848 9.7702 58.6355 9.77553C58.0607 9.78848 57.4851 9.77934 56.889 9.77934V6.64703C57.4609 6.64703 58.0123 6.63866 58.563 6.65008C58.8448 6.65617 58.9611 6.57697 58.9521 6.25864C58.9271 5.34552 58.9483 4.43165 58.9347 3.51777C58.9302 3.20858 59.0246 3.09891 59.3487 3.10577C60.4047 3.12633 61.4608 3.11338 62.5863 3.11338L62.5871 3.11415Z" fill="#EFF0FF"/>
<path d="M0.00075541 9.77927V6.64773C0.480441 6.64773 0.941996 6.64773 1.4028 6.64773C1.87266 6.64773 2.10759 6.41723 2.10759 5.95623C2.10759 5.15659 2.10684 4.35695 2.10835 3.55807C2.10835 3.42251 2.11968 3.28619 2.12648 3.13159H5.69428C5.69428 3.69134 5.69428 4.23433 5.69428 4.77733C5.69428 5.24721 5.71694 5.71786 5.68748 6.18546C5.66331 6.56624 5.81515 6.66143 6.16641 6.65382C7.12276 6.63478 8.07911 6.64773 9.03546 6.64773C9.1601 6.64773 9.28399 6.64773 9.44338 6.64773V9.76099C9.3142 9.76708 9.18125 9.77851 9.0483 9.77851C8.05418 9.78003 7.06006 9.78612 6.06594 9.7747C5.79173 9.77165 5.68824 9.85771 5.68975 10.1448C5.70032 11.9337 5.67842 13.7234 5.7041 15.5131C5.71921 16.5595 6.19889 17.334 7.41737 17.4322C8.11084 17.4886 8.81261 17.4322 9.51061 17.4276C9.63525 17.4269 9.75914 17.4276 9.90493 17.4276C9.91627 17.5205 9.93591 17.6051 9.93591 17.6896C9.93817 18.5273 9.93591 19.3651 9.93893 20.202C9.93968 20.3802 9.92684 20.5059 9.70399 20.5577C8.23548 20.8988 6.76772 21.0138 5.30373 20.5592C3.61464 20.0337 2.56915 18.899 2.24886 17.1375C2.14763 16.5808 2.11817 16.005 2.11288 15.4369C2.09626 13.6983 2.09777 11.9596 2.11439 10.221C2.11741 9.86533 2.00712 9.75566 1.66039 9.77242C1.12254 9.79907 0.581666 9.77927 0 9.77927H0.00075541Z" fill="#EFF0FF"/>
<path d="M88.9993 18.4344C88.0988 19.2728 87.2331 20.0793 86.3319 20.9186C84.9148 19.4503 83.4032 17.883 81.8599 16.2845C80.3272 17.8731 78.8217 19.4335 77.3652 20.943C76.4905 20.1136 75.6248 19.2926 74.722 18.4359C76.2699 16.8176 77.783 15.235 79.3202 13.6281C77.7852 12.0334 76.2812 10.4707 74.7455 8.87524C75.584 7.99411 76.4066 7.12974 77.2708 6.22119C81.1808 10.2925 85.0681 14.3402 89.0001 18.4344H88.9993Z" fill="#EFF0FF"/>
<path d="M20.4467 9.88518C19.9564 9.90955 19.5311 9.93849 19.1058 9.95068C17.1236 10.0063 15.8817 11.4205 15.8764 13.3625C15.8704 15.5824 15.8749 17.8024 15.8749 20.0231C15.8749 20.1731 15.8749 20.3232 15.8749 20.4983H12.2837V6.61351H15.5705V8.24173C15.9754 7.8739 16.3025 7.51215 16.6892 7.23647C17.7279 6.49623 18.9026 6.32488 20.1377 6.52822C20.251 6.54725 20.4323 6.69043 20.4338 6.77953C20.455 7.80383 20.4474 8.8289 20.4474 9.88518H20.4467Z" fill="#EFF0FF"/>
<path d="M26.242 20.5006H22.6621V6.62573H26.242V20.5006Z" fill="#EFF0FF"/>
<path d="M69.1637 6.61182H72.6915V20.5073H69.1637V6.61182Z" fill="#EFF0FF"/>
<path d="M88.9712 8.85637C87.8826 9.99491 86.8304 11.0946 85.8672 12.1014C84.9615 11.2599 84.0875 10.448 83.1908 9.61565C84.2892 8.46874 85.3437 7.36828 86.4466 6.2168C87.2934 7.10249 88.1161 7.96306 88.9712 8.85713V8.85637Z" fill="#EFF0FF"/>
<path d="M72.9974 2.10277C72.9928 3.24206 72.075 4.15975 70.9306 4.16889C69.7869 4.17802 68.8403 3.22607 68.8449 2.07002C68.8486 0.894929 69.7823 -0.0105687 70.9797 9.31865e-05C72.1165 0.0099935 73.0019 0.932246 72.9974 2.10277Z" fill="#EFF0FF"/>
<path d="M24.4338 0.00368527C25.5994 -0.00164566 26.5097 0.913752 26.5067 2.08808C26.5036 3.22205 25.5707 4.16182 24.4421 4.16715C23.3045 4.17248 22.3821 3.24718 22.3806 2.09874C22.3791 0.889382 23.2418 0.00901621 24.4338 0.00368527Z" fill="#EFF0FF"/>
</svg>
