<svg width="22" height="20" viewBox="0 0 22 20" fill="none" xmlns="http://www.w3.org/2000/svg">
<path d="M19.8981 17.1125C19.5898 17.3956 19.2815 17.6079 18.9732 17.7495C17.7962 18.4855 16.507 19.0446 15.1057 19.4268C13.7045 19.8089 12.3312 20 10.986 20C8.88408 20 6.90828 19.6108 5.0586 18.8323C3.20892 18.0538 1.56943 16.9851 0.140127 15.6263C0 15.5131 -0.0350318 15.4069 0.0350318 15.3079C0.105096 15.2088 0.210191 15.2017 0.350318 15.2866C1.91975 16.2208 3.6293 16.9568 5.47898 17.4947C7.32866 18.0326 9.24841 18.3015 11.2382 18.3015C12.4994 18.3015 13.7815 18.1812 15.0847 17.9406C16.3879 17.6999 17.6841 17.3107 18.9732 16.7728C19.0573 16.7162 19.1484 16.6737 19.2465 16.6454C19.3446 16.6171 19.4357 16.5747 19.5197 16.518C19.7439 16.4331 19.9121 16.4756 20.0242 16.6454C20.1363 16.8153 20.0943 16.971 19.8981 17.1125ZM21.9159 15.0743C21.8038 14.9328 21.4465 14.8337 20.844 14.7771C20.2414 14.7205 19.6178 14.7912 18.9732 14.9894C18.6089 15.1309 18.2866 15.3008 18.0064 15.4989C17.8943 15.5839 17.8452 15.6617 17.8592 15.7325C17.8732 15.8033 17.9363 15.8386 18.0484 15.8386C18.1885 15.8103 18.3357 15.7891 18.4898 15.7749C18.6439 15.7608 18.8051 15.7396 18.9732 15.7113C19.3656 15.6829 19.751 15.6759 20.1293 15.69C20.5076 15.7042 20.7669 15.782 20.907 15.9236C20.9911 16.0085 21.0121 16.1713 20.9701 16.4119C20.928 16.6525 20.865 16.9214 20.7809 17.2187C20.6968 17.5159 20.6057 17.8061 20.5076 18.0892C20.4096 18.3723 20.3185 18.6129 20.2344 18.811C20.1783 18.9243 20.1924 18.995 20.2764 19.0234C20.3605 19.0517 20.4586 19.0234 20.5707 18.9384C21.0471 18.5138 21.3975 17.9618 21.6217 17.2824C21.8459 16.603 21.972 16.051 22 15.6263V15.4989C22 15.3291 21.972 15.1875 21.9159 15.0743ZM17.2076 12.2718C16.9834 12.4982 16.6892 12.7672 16.3248 13.0786C15.9605 13.3899 15.6522 13.6589 15.4 13.8854C15.2318 13.9986 15.0357 14.0127 14.8115 13.9278C14.4191 13.5881 14.1529 13.3121 14.0127 13.0998C13.8726 12.8875 13.6904 12.6256 13.4662 12.3142C12.7656 13.1069 12.0369 13.6306 11.2803 13.8854C10.7197 14.0269 10.1592 14.0977 9.59873 14.0977C8.61783 14.0977 7.78408 13.7792 7.09745 13.1423C6.41083 12.5053 6.06752 11.5499 6.06752 10.276C6.06752 9.28521 6.29873 8.45011 6.76115 7.7707C7.22357 7.0913 7.83312 6.58174 8.58981 6.24204C8.98217 6.04388 9.40955 5.89526 9.87197 5.79618C10.3344 5.6971 10.8038 5.61925 11.2803 5.56263C11.5885 5.50602 11.8898 5.47063 12.1841 5.45648C12.4783 5.44232 12.7516 5.42109 13.0038 5.39278V5.05308C13.0038 4.74168 12.9968 4.43029 12.9828 4.1189C12.9688 3.8075 12.8917 3.52442 12.7516 3.26964C12.6115 3.04317 12.4153 2.8804 12.1631 2.78132C11.9108 2.68224 11.6586 2.6327 11.4064 2.6327H11.2803C10.8599 2.68931 10.4885 2.83086 10.1662 3.05732C9.84395 3.28379 9.62675 3.63765 9.51465 4.1189C9.4586 4.40198 9.31847 4.55768 9.09427 4.58599L6.78217 4.28875C6.72611 4.26044 6.64904 4.2109 6.55096 4.14013C6.45287 4.06936 6.43185 3.94904 6.4879 3.77919C6.6 3.09979 6.8172 2.52654 7.13949 2.05945C7.46178 1.59236 7.84013 1.21019 8.27452 0.912951C8.70892 0.615711 9.18535 0.39632 9.70382 0.254777C10.2223 0.113234 10.7478 0.0283086 11.2803 0H11.7427C12.3032 0 12.9197 0.0920028 13.5924 0.276008C14.265 0.460014 14.8395 0.778485 15.3159 1.23142C15.8764 1.79759 16.1847 2.44161 16.2408 3.16348C16.2968 3.88535 16.3248 4.65676 16.3248 5.47771V9.34183C16.3248 9.908 16.4229 10.3539 16.6191 10.6794C16.8153 11.005 17.0255 11.3234 17.2497 11.6348C17.3057 11.7481 17.3408 11.8613 17.3548 11.9745C17.3688 12.0878 17.3197 12.1868 17.2076 12.2718ZM13.0038 7.89809V7.38854C12.6955 7.38854 12.3943 7.40269 12.1 7.431C11.8057 7.45931 11.5325 7.50177 11.2803 7.55839C10.7758 7.69993 10.3554 7.94763 10.0191 8.30149C9.6828 8.65534 9.51465 9.17197 9.51465 9.85138C9.51465 10.4176 9.63376 10.8634 9.87197 11.189C10.1102 11.5145 10.4675 11.6773 10.9439 11.6773C11 11.6773 11.0561 11.6702 11.1121 11.6561C11.1682 11.6419 11.2242 11.6348 11.2803 11.6348C11.8408 11.4933 12.2752 11.1111 12.5834 10.4883C12.8076 10.0637 12.9338 9.64614 12.9618 9.23567C12.9898 8.82519 13.0038 8.37933 13.0038 7.89809Z" fill="#E4E5F9"/>
</svg>
