<svg width="97" height="32" viewBox="0 0 97 32" fill="none" xmlns="http://www.w3.org/2000/svg">
<g opacity="0.9">
<path d="M88.5595 31.1168C93.3047 31.1168 97 28.4293 97 24.146C97 16.2934 86.5858 17.9731 86.5858 14.4877C86.5858 13.3958 87.5096 12.724 88.8534 12.724C90.9111 12.724 92.1289 13.9837 92.8008 14.8236L96.6221 11.9681C95.5723 10.2464 93.2627 8.06274 89.1054 8.06274C84.6121 8.06274 81.1267 10.4983 81.1267 14.5716C81.1267 22.3823 91.499 21.0805 91.499 24.44C91.499 25.6998 90.4492 26.4136 88.8114 26.4136C86.3338 26.4136 84.8641 25.2798 83.7723 24.02L80.3708 27.0435C81.5467 28.9332 84.2342 31.1168 88.5595 31.1168Z" fill="#464BDC"/>
<path d="M54.8693 19.6528C54.8693 26.2877 59.8244 31.1168 66.6693 31.1168C73.5561 31.1168 78.5113 26.2877 78.5113 19.6528C78.5113 13.0179 73.3881 8.06274 66.6693 8.06274C59.9924 8.06274 54.8693 12.9759 54.8693 19.6528ZM60.6643 19.6528C60.6643 15.8734 63.1839 13.1859 66.6693 13.1859C70.1547 13.1859 72.7162 15.9154 72.7162 19.6528C72.7162 23.3902 70.1547 25.9937 66.6693 25.9937C63.2259 25.9937 60.6643 23.3902 60.6643 19.6528Z" fill="#464BDC"/>
<path d="M51.5469 0.209961H45.7519V10.9182C45.206 10.1623 43.0223 8.06263 39.243 8.06263C32.944 8.06263 28.8287 12.8078 28.8287 19.6107C28.8287 26.3715 33.28 31.1167 39.5789 31.1167C43.3163 31.1167 45.4999 29.0171 46.0878 28.3032V30.5708H51.5469V0.209961ZM45.9198 19.6527C45.9198 23.1381 43.8202 25.9936 40.2928 25.9936C37.0174 25.9936 34.6657 23.558 34.6657 19.6527C34.6657 15.8313 36.9334 13.1858 40.2928 13.1858C43.4843 13.1858 45.9198 15.5374 45.9198 19.6527Z" fill="#464BDC"/>
<path d="M19.6714 30.5708H25.4664V8.60855H19.6714V30.5708ZM19.1675 3.31744C19.1675 5.20712 20.6372 6.63488 22.5269 6.63488C24.4586 6.63488 25.9283 5.20712 25.9283 3.31744C25.9283 1.42776 24.4586 0 22.5269 0C20.6372 0 19.1675 1.42776 19.1675 3.31744Z" fill="#464BDC"/>
<path d="M0 30.5708H15.4954V25.2797H5.921V18.3089H13.8157V13.0598H5.921V6.50888H15.1174V1.17578H0V30.5708Z" fill="#464BDC"/>
</g>
</svg>
