<svg width="114" height="25" viewBox="0 0 114 25" fill="none" xmlns="http://www.w3.org/2000/svg">
<path d="M102.231 21.6303C101.384 21.6303 100.599 21.4354 99.8737 21.0456C99.1549 20.6496 98.5761 20.0649 98.1371 19.2915C97.6982 18.518 97.4788 17.559 97.4788 16.4143C97.4788 15.3253 97.7046 14.4033 98.1562 13.6485C98.6079 12.8936 99.1963 12.3213 99.9214 11.9314C100.647 11.5416 101.416 11.3467 102.231 11.3467C103.038 11.3467 103.773 11.5509 104.435 11.9593C105.096 12.3615 105.624 12.9122 106.019 13.6113C106.413 14.3105 106.61 15.1118 106.61 16.0152C106.61 16.0461 106.61 16.0771 106.61 16.108C106.61 16.1389 106.61 16.173 106.61 16.2101L105.293 16.2194C105.293 16.2008 105.293 16.1823 105.293 16.1637C105.293 16.1389 105.293 16.1173 105.293 16.0987C105.293 15.6594 105.185 15.2913 104.969 14.9943C104.759 14.6911 104.492 14.4621 104.167 14.3074C103.843 14.1466 103.506 14.0661 103.156 14.0661C102.59 14.0661 102.087 14.2518 101.648 14.623C101.21 14.9881 100.99 15.5852 100.99 16.4143C100.99 17.2434 101.21 17.8498 101.648 18.2334C102.087 18.617 102.59 18.8088 103.156 18.8088C103.519 18.8088 103.862 18.7253 104.187 18.5583C104.511 18.3912 104.775 18.153 104.979 17.8436C105.188 17.528 105.293 17.1537 105.293 16.7206L106.61 16.7948C106.61 17.692 106.413 18.5057 106.019 19.2358C105.631 19.9659 105.106 20.5475 104.444 20.9807C103.783 21.4138 103.045 21.6303 102.231 21.6303ZM105.293 21.3983V6.89172H108.7V21.3983H105.293Z" fill="#EFF0FF"/>
<path d="M92.3242 21.3983V11.5416H95.6925V21.3983H92.3242ZM94.0036 10.1587C93.4947 10.1587 93.0462 10.0288 92.6582 9.76892C92.2765 9.50904 92.0857 9.14089 92.0857 8.66445C92.0857 8.18182 92.2765 7.81367 92.6582 7.55998C93.0462 7.3001 93.4947 7.17017 94.0036 7.17017C94.5188 7.17017 94.9673 7.3001 95.349 7.55998C95.7306 7.81367 95.9215 8.18182 95.9215 8.66445C95.9215 9.14707 95.7306 9.51832 95.349 9.7782C94.9673 10.0319 94.5188 10.1587 94.0036 10.1587Z" fill="#EFF0FF"/>
<path d="M78.4685 21.3982L81.8558 7.6991H87.2564L90.6342 21.3982H87.1419L84.5561 9.69457H84.5752L81.9512 21.3982H78.4685ZM81.1593 18.3725V15.8388H87.972V18.3725H81.1593Z" fill="#EFF0FF"/>
<path d="M74.5819 21.6211C74.1684 21.6211 73.7359 21.5871 73.2842 21.519C72.8326 21.4571 72.4128 21.3272 72.0247 21.1292C71.6367 20.9312 71.3218 20.6342 71.0801 20.2382C70.8384 19.8422 70.7175 19.3162 70.7175 18.6604C70.7175 18.5181 70.7175 18.3788 70.7175 18.2427C70.7175 18.1004 70.7175 17.9581 70.7175 17.8158V14.0476H68.418V11.5416H68.771C69.2099 11.5416 69.5598 11.5231 69.8206 11.486C70.0814 11.4488 70.2754 11.356 70.4026 11.2075C70.5299 11.059 70.6126 10.8301 70.6507 10.5207C70.6953 10.2051 70.7175 9.76893 70.7175 9.21205V8.30249H74.1335V11.5416H76.996V14.0476H74.1335V17.1754C74.1335 17.2806 74.1335 17.3826 74.1335 17.4816C74.1335 17.5745 74.1335 17.6704 74.1335 17.7694C74.1335 18.1592 74.1812 18.484 74.2766 18.7439C74.372 19.0038 74.6201 19.1337 75.0208 19.1337C75.2435 19.1337 75.4534 19.1121 75.6506 19.0687C75.8478 19.0254 75.9941 18.9852 76.0895 18.9481V21.3798C75.9496 21.4355 75.7492 21.4881 75.4884 21.5376C75.2276 21.5932 74.9254 21.6211 74.5819 21.6211Z" fill="#EFF0FF"/>
<path d="M62.4458 21.6303C61.8415 21.6303 61.2531 21.5622 60.6806 21.4261C60.1144 21.29 59.5992 21.0858 59.1348 20.8136C58.6768 20.5351 58.3079 20.1886 58.028 19.7741C57.7544 19.3595 57.6177 18.8769 57.6177 18.3262C57.6177 18.3076 57.6177 18.286 57.6177 18.2612C57.6177 18.2365 57.6177 18.2148 57.6177 18.1962H60.9954C60.9954 18.2148 60.9954 18.2334 60.9954 18.2519C60.9954 18.2705 60.9954 18.2891 60.9954 18.3076C60.9954 18.617 61.1322 18.8397 61.4057 18.9759C61.6856 19.112 62.0641 19.1801 62.5412 19.1801C62.7575 19.1801 62.9769 19.1584 63.1996 19.1151C63.4286 19.0656 63.6194 18.9882 63.7721 18.8831C63.9311 18.7717 64.0106 18.6325 64.0106 18.4654C64.0106 18.1993 63.8452 18.0106 63.5145 17.8992C63.19 17.7879 62.6398 17.6703 61.8637 17.5466C61.4185 17.4785 60.9541 17.3764 60.4706 17.2403C59.9936 17.1041 59.5483 16.9216 59.1348 16.6927C58.7213 16.4637 58.3874 16.1729 58.1329 15.8202C57.8785 15.4676 57.7513 15.0344 57.7513 14.5209C57.7513 13.8217 57.9675 13.2401 58.4001 12.776C58.8327 12.3057 59.4052 11.95 60.1176 11.7086C60.8364 11.4673 61.6252 11.3467 62.4839 11.3467C63.2982 11.3467 64.0583 11.4797 64.7644 11.7458C65.4769 12.0118 66.0525 12.3924 66.4915 12.8874C66.9367 13.3824 67.1594 13.9702 67.1594 14.6508C67.1594 14.6632 67.1594 14.6817 67.1594 14.7065C67.1594 14.7251 67.1594 14.7436 67.1594 14.7622H63.8198C63.8198 14.7436 63.8198 14.7251 63.8198 14.7065C63.8198 14.6879 63.8198 14.6725 63.8198 14.6601C63.8198 14.4497 63.7498 14.2796 63.6099 14.1496C63.4763 14.0197 63.3045 13.9238 63.0946 13.8619C62.8911 13.8 62.6811 13.7691 62.4649 13.7691C62.2804 13.7691 62.08 13.7907 61.8637 13.8341C61.6475 13.8712 61.463 13.9392 61.3103 14.0382C61.1576 14.1311 61.0813 14.2703 61.0813 14.4559C61.0813 14.6168 61.1704 14.7529 61.3485 14.8643C61.5266 14.9756 61.7715 15.0685 62.0832 15.1427C62.3949 15.2108 62.7511 15.2757 63.1519 15.3376C63.5463 15.3933 63.982 15.4799 64.4591 15.5975C64.9362 15.7151 65.391 15.8852 65.8235 16.108C66.2561 16.3245 66.6091 16.6153 66.8827 16.9804C67.1626 17.3455 67.3025 17.8095 67.3025 18.3726C67.3025 18.9666 67.1626 19.4709 66.8827 19.8854C66.6028 20.3 66.2243 20.6372 65.7472 20.8971C65.2765 21.1508 64.7549 21.3364 64.1824 21.454C63.6099 21.5715 63.031 21.6303 62.4458 21.6303Z" fill="#EFF0FF"/>
<path d="M48.7961 21.3983V11.5416H52.2025V15.0685L51.5632 14.623C51.6523 14.1341 51.7922 13.6886 51.9831 13.2865C52.1739 12.8781 52.4188 12.5316 52.7178 12.247C53.0231 11.9561 53.3762 11.7334 53.7769 11.5787C54.184 11.424 54.642 11.3467 55.1509 11.3467C55.5644 11.3467 55.8793 11.3745 56.0955 11.4302C56.3182 11.4859 56.4581 11.5292 56.5154 11.5601L56.0097 14.4837C55.9524 14.4528 55.8252 14.4064 55.628 14.3445C55.4308 14.2765 55.1859 14.2424 54.8933 14.2424C54.3908 14.2424 53.9646 14.3229 53.6147 14.4837C53.2712 14.6384 52.9945 14.8488 52.7846 15.1149C52.581 15.3809 52.4315 15.6779 52.3361 16.0059C52.2471 16.3338 52.2025 16.6617 52.2025 16.9897V21.3983H48.7961Z" fill="#EFF0FF"/>
<path d="M43.136 21.3983V11.5416H46.5042V21.3983H43.136ZM44.8153 10.1587C44.3065 10.1587 43.858 10.0288 43.47 9.76892C43.0883 9.50904 42.8975 9.14089 42.8975 8.66445C42.8975 8.18182 43.0883 7.81367 43.47 7.55998C43.858 7.3001 44.3065 7.17017 44.8153 7.17017C45.3306 7.17017 45.7791 7.3001 46.1607 7.55998C46.5424 7.81367 46.7332 8.18182 46.7332 8.66445C46.7332 9.14707 46.5424 9.51832 46.1607 9.7782C45.7791 10.0319 45.3306 10.1587 44.8153 10.1587Z" fill="#EFF0FF"/>
<path d="M33.8955 10.2146L35.4318 8.68315V14.289L34.3822 13.4816H40.1644V15.9968H34.3822L35.4318 15.1243V21.3985H32.0349V7.70862H41.0137V10.2146H33.8955Z" fill="#EFF0FF"/>
<path d="M2.49919 6.64062C5.00294 4.14217 9.26077 4.21908 11.813 6.67092L12.3444 7.19065L12.8757 6.68024C15.4279 4.21908 19.6858 4.14217 22.1895 6.64062C24.6221 9.0698 24.5832 12.9225 22.1022 15.306L21.452 15.9306L12.6695 24.3675C12.583 24.4508 12.4656 24.4975 12.3431 24.4975C12.2207 24.4975 12.1033 24.4508 12.0168 24.3675L2.58653 15.306C0.105468 12.9225 0.0666357 9.0698 2.49919 6.64062Z" fill="#EFF0FF"/>
</svg>
