<svg width="24" height="24" viewBox="0 0 24 24" fill="none" xmlns="http://www.w3.org/2000/svg">
<path d="M24 11.8277C24 15.007 23.4672 17.586 22.8097 17.586C22.1522 17.586 21.6196 15.0077 21.6196 11.8277C21.6196 8.6477 22.1525 6.06946 22.8097 6.06946C23.467 6.06946 24 8.64747 24 11.8277Z" fill="#E4E5F9"/>
<path d="M20.9627 11.8277C20.9627 15.377 19.4474 18.2555 17.5783 18.2555C15.7091 18.2555 14.1938 15.377 14.1938 11.8277C14.1938 8.2784 15.7089 5.39996 17.578 5.39996C19.4472 5.39996 20.9625 8.27748 20.9625 11.8277" fill="#E4E5F9"/>
<path d="M13.5374 11.8277C13.5374 15.5984 10.5069 18.6552 6.76884 18.6552C3.03073 18.6552 0 15.5977 0 11.8277C0 8.05767 3.0305 5 6.76884 5C10.5072 5 13.5374 8.05698 13.5374 11.8277Z" fill="#E4E5F9"/>
</svg>
