<svg width="105" height="57" viewBox="0 0 105 57" fill="none" xmlns="http://www.w3.org/2000/svg">
<path fill-rule="evenodd" clip-rule="evenodd" d="M64.0227 0.0862125C65.155 -0.323928 67.1252 0.786763 67.1252 2.2006V2.20315C67.1252 3.62717 65.216 5.42823 63.9415 5.42823C63.3398 5.42823 61.7834 4.72003 61.7834 3.74181C61.7834 2.37383 62.9386 0.478521 64.0227 0.0862125ZM92.3439 7.16815C92.3439 7.16815 93.9586 6.69687 96.3807 6.69687L96.3654 6.69432C100.126 6.69432 104.5 7.86615 104.5 12.5484C104.5 24.7555 79.0756 31.9721 57.1927 38.1835C40.6608 42.876 26.1503 46.9948 26.1503 52.2581C26.1503 53.1803 27.5898 54.6604 30.2785 54.6604C30.3166 55.3558 29.4229 56.8639 28.0925 56.6346C25.8837 56.2525 24.3731 54.3037 24.3731 51.3818C24.3731 42.3113 47.177 35.3235 68.1837 28.8865C86.1211 23.39 102.748 18.295 102.748 12.6477C102.748 11.4759 101.646 9.55766 95.9415 9.55766C93.6057 9.55766 92.2779 10.0442 92.2779 10.0442C92.2779 10.0442 87.3321 22.2975 79.4438 22.2975C78.2277 22.2975 76.3794 21.7014 76.3794 19.2889C76.3794 16.5426 78.1029 13.3628 79.4324 10.9098C80.2673 9.36941 80.9468 8.1156 80.9468 7.43563C80.9468 7.01021 80.7818 6.77075 80.401 6.77075C75.2953 6.77075 69.1131 17.9006 69.1131 17.9006C66.9627 21.9536 64.8224 25.3468 63.9922 25.3468C62.8523 25.3468 62.2049 24.6972 62.2049 23.7292C62.2049 23.2044 63.0097 21.2377 64.1776 18.703C61.3924 22.1344 58.0614 25.3825 55.4388 25.3825C52.976 25.3825 52.1204 23.7037 52.1204 22.2771C52.1204 21.7498 52.2169 21.1078 52.387 20.3869C49.7364 23.9431 46.05 27.6701 42.6961 27.6701C39.3423 27.6701 38.9538 24.8704 38.9538 23.3929C38.9538 19.4316 44.8643 12.714 44.8643 12.714C44.8643 12.714 44.1179 13.2209 42.6276 13.2209C41.7948 13.2209 40.7183 13.0528 39.8018 12.5229C38.1414 15.8066 34.9221 20.099 29.1131 21.4543C30.5476 22.621 31.4286 24.5673 31.4286 27.4637C31.4286 33.3178 24.3807 42.4249 12.3235 42.4249C2.2112 42.4249 0.5 33.1242 0.5 29.9093C0.5 15.9569 12.2601 5.67024 25.7415 5.67024C29.6945 5.67024 33.6526 6.97709 33.6526 10.8798C33.6526 12.3981 32.2487 13.4629 31.944 13.5801C31.7003 13.6769 31.6266 13.44 31.6647 13.3534C31.7333 13.1929 31.7663 13.0604 31.7663 12.8337C31.7663 11.7306 30.4765 9.12714 25.0966 9.12714C13.9484 9.12714 5.75293 18.1732 5.75293 29.3259C5.75293 33.8502 8.1801 39.2432 14.0779 39.2432C19.2039 39.2432 26.3788 34.9838 26.3788 27.0816C26.3788 22.2593 22.1566 21.9383 19.6533 22.1727C16.109 22.6057 14.8853 23.4642 14.3216 24.2412C14.2379 24.3584 14.1058 24.338 14.0068 24.2157C13.8824 24.0603 13.8113 23.696 13.8113 23.4464C13.8113 21.9791 14.7939 17.5185 25.0357 17.5185C33.3581 17.5185 36.9126 13.9011 38.4156 11.132C38.0982 10.5563 37.9027 9.83534 37.9027 8.93354C37.9027 7.5681 39.0503 6.79877 40.0963 6.79877C41.1423 6.79877 41.4825 7.43308 41.4825 7.89672C41.4825 8.3145 41.3607 8.48264 41.3607 8.48264C41.3607 8.48264 41.4115 9.68504 43.2902 9.68504C46.0144 9.68504 48.5432 7.71076 48.5432 7.71076C48.5432 7.71076 49.6857 4.88563 51.7371 4.88563C52.5724 4.88563 53.2071 5.94792 53.2071 6.82424C53.2071 8.7119 50.0563 10.4442 50.0563 10.4442C50.0563 10.4442 44.0062 18.1451 44.0062 21.3957C44.0062 22.3714 44.481 22.9547 45.2579 22.9547C49.3937 22.9547 55.7282 12.2834 55.7282 12.2834C57.6628 8.70172 59.9148 5.67279 61.2198 5.67279C62.3217 5.67279 63.2128 6.4625 63.2128 7.43563C63.2128 7.9664 62.2208 9.5941 61.0474 11.5196C59.3485 14.3072 57.2693 17.719 57.2693 19.3297C57.2693 19.829 57.3201 20.3869 58.0411 20.3869C61.923 20.3869 68.8618 9.27744 68.8618 9.27744C70.7888 5.6193 72.4746 2.7152 72.8326 2.7152C73.8355 2.7152 74.7291 3.17883 74.7291 4.77099C74.7291 5.44352 74.1706 7.08154 73.3048 9.15516C76.0824 5.94028 79.7333 2.71265 83.2064 2.71265C84.9811 2.71265 85.4559 4.18763 85.4559 5.13528C85.4559 6.147 84.4986 8.05345 83.4541 10.1338C82.1999 12.6316 80.8199 15.38 80.8199 17.1312C80.8199 17.8114 81.2185 18.298 81.9903 18.298C84.6333 18.298 89.0205 12.8668 89.5105 10.5333C88.4391 10.0137 88.1674 9.4685 88.1674 8.62275C88.1674 7.47894 88.8428 6.48543 90.3737 6.48543C91.699 6.48543 92.3439 7.16815 92.3439 7.16815Z" fill="#E4E5F9"/>
</svg>
