<svg width="75" height="41" viewBox="0 0 75 41" fill="none" xmlns="http://www.w3.org/2000/svg">
<path fill-rule="evenodd" clip-rule="evenodd" d="M45.2153 0.0613658C46.0213 -0.230571 47.4237 0.560016 47.4237 1.56638V1.56819C47.4237 2.58181 46.0647 3.8638 45.1575 3.8638C44.7292 3.8638 43.6214 3.35971 43.6214 2.66341C43.6214 1.68969 44.4436 0.34061 45.2153 0.0613658ZM65.3742 5.10227C65.3742 5.10227 66.5236 4.76681 68.2476 4.76681L68.2368 4.765C70.9132 4.765 74.0269 5.5991 74.0269 8.9319C74.0269 17.6209 55.9299 22.7577 40.3537 27.1789C28.5864 30.519 18.2578 33.4508 18.2578 37.1972C18.2578 37.8536 19.2825 38.9071 21.1963 38.9071C21.2234 39.4021 20.5872 40.4756 19.6403 40.3124C18.068 40.0404 16.9928 38.6532 16.9928 36.5734C16.9928 30.1171 33.2245 25.1432 48.1771 20.5613C60.9449 16.6489 72.78 13.0223 72.78 9.00261C72.78 8.16851 71.9957 6.80312 67.935 6.80312C66.2724 6.80312 65.3272 7.14945 65.3272 7.14945C65.3272 7.14945 61.8069 15.8713 56.192 15.8713C55.3264 15.8713 54.0108 15.447 54.0108 13.7298C54.0108 11.775 55.2375 9.51163 56.1839 7.76555C56.7782 6.66912 57.2619 5.77666 57.2619 5.29266C57.2619 4.98985 57.1444 4.8194 56.8733 4.8194C53.2391 4.8194 48.8387 12.7416 48.8387 12.7416C47.308 15.6265 45.7846 18.0418 45.1936 18.0418C44.3822 18.0418 43.9214 17.5794 43.9214 16.8903C43.9214 16.5168 44.4942 15.117 45.3255 13.3128C43.3431 15.7552 40.9721 18.0672 39.1053 18.0672C37.3523 18.0672 36.7433 16.8722 36.7433 15.8568C36.7433 15.4814 36.812 15.0245 36.9331 14.5113C35.0464 17.0427 32.4224 19.6955 30.0351 19.6955C27.6478 19.6955 27.3713 17.7027 27.3713 16.651C27.3713 13.8314 31.5784 9.04976 31.5784 9.04976C31.5784 9.04976 31.0471 9.4106 29.9863 9.4106C29.3936 9.4106 28.6273 9.29093 27.9749 8.91377C26.793 11.2511 24.5016 14.3064 20.3668 15.2711C21.3878 16.1016 22.0149 17.4869 22.0149 19.5486C22.0149 23.7155 16.9982 30.198 8.41597 30.198C1.21803 30.198 0 23.5777 0 21.2893C0 11.3581 8.3708 4.03606 17.9668 4.03606C20.7806 4.03606 23.598 4.96627 23.598 7.74421C23.598 8.82492 22.5986 9.58286 22.3818 9.66627C22.2083 9.73518 22.1559 9.56654 22.183 9.50489C22.2318 9.39066 22.2553 9.29637 22.2553 9.13499C22.2553 8.34984 21.3372 6.49668 17.5078 6.49668C9.57256 6.49668 3.73903 12.9356 3.73903 20.8741C3.73903 24.0945 5.46668 27.9332 9.66473 27.9332C13.3134 27.9332 18.4204 24.9014 18.4204 19.2766C18.4204 15.8441 15.4151 15.6156 13.6333 15.7824C11.1105 16.0907 10.2394 16.7018 9.83821 17.2548C9.77857 17.3382 9.6846 17.3237 9.61413 17.2367C9.52557 17.1261 9.47497 16.8668 9.47497 16.6891C9.47497 15.6446 10.1743 12.4696 17.4645 12.4696C23.3883 12.4696 25.9184 9.89475 26.9882 7.92372C26.7623 7.51392 26.6232 7.00077 26.6232 6.35887C26.6232 5.38695 27.44 4.83934 28.1846 4.83934C28.9291 4.83934 29.1713 5.29085 29.1713 5.62086C29.1713 5.91824 29.0845 6.03792 29.0845 6.03792C29.0845 6.03792 29.1207 6.89378 30.458 6.89378C32.3971 6.89378 34.197 5.4885 34.197 5.4885C34.197 5.4885 35.0102 3.47758 36.4704 3.47758C37.065 3.47758 37.5168 4.23371 37.5168 4.85748C37.5168 6.20111 35.2741 7.43414 35.2741 7.43414C35.2741 7.43414 30.9676 12.9157 30.9676 15.2294C30.9676 15.9239 31.3055 16.3391 31.8585 16.3391C34.8024 16.3391 39.3113 8.74332 39.3113 8.74332C40.6883 6.19386 42.2913 4.03788 43.2202 4.03788C44.0045 4.03788 44.6388 4.59999 44.6388 5.29266C44.6388 5.67046 43.9327 6.82905 43.0975 8.19959C41.8882 10.1838 40.4082 12.6123 40.4082 13.7588C40.4082 14.1142 40.4444 14.5113 40.9576 14.5113C43.7208 14.5113 48.6598 6.60366 48.6598 6.60366C50.0314 3.9998 51.2314 1.93267 51.4862 1.93267C52.2 1.93267 52.8361 2.26268 52.8361 3.39598C52.8361 3.87468 52.4385 5.04062 51.8223 6.51662C53.7993 4.22827 56.398 1.93085 58.8702 1.93085C60.1334 1.93085 60.4714 2.98074 60.4714 3.65528C60.4714 4.37542 59.79 5.73243 59.0465 7.21318C58.1538 8.99111 57.1715 10.9474 57.1715 12.194C57.1715 12.6781 57.4552 13.0245 58.0046 13.0245C59.8859 13.0245 63.0087 9.15856 63.3574 7.4976C62.5948 7.12769 62.4014 6.73965 62.4014 6.13765C62.4014 5.32349 62.8822 4.61631 63.9719 4.61631C64.9152 4.61631 65.3742 5.10227 65.3742 5.10227Z" fill="#E4E5F9"/>
</svg>
