<svg width="167" height="21" viewBox="0 0 167 21" fill="none" xmlns="http://www.w3.org/2000/svg">
<path d="M101.531 17.6908C100.685 17.6908 99.8989 17.4959 99.1738 17.1061C98.455 16.7101 97.8761 16.1253 97.4372 15.3519C96.9983 14.5785 96.7788 13.6194 96.7788 12.4747C96.7788 11.3857 97.0046 10.4638 97.4563 9.7089C97.9079 8.95402 98.4963 8.38168 99.2215 7.99187C99.9467 7.60205 100.716 7.40715 101.531 7.40715C102.338 7.40715 103.073 7.61134 103.735 8.01971C104.396 8.4219 104.924 8.97259 105.319 9.67177C105.713 10.371 105.91 11.1722 105.91 12.0756C105.91 12.1066 105.91 12.1375 105.91 12.1684C105.91 12.1994 105.91 12.2334 105.91 12.2705L104.593 12.2798C104.593 12.2612 104.593 12.2427 104.593 12.2241C104.593 12.1994 104.593 12.1777 104.593 12.1591C104.593 11.7198 104.485 11.3517 104.269 11.0547C104.059 10.7515 103.792 10.5226 103.468 10.3679C103.143 10.207 102.806 10.1266 102.456 10.1266C101.89 10.1266 101.387 10.3122 100.949 10.6834C100.51 11.0485 100.29 11.6456 100.29 12.4747C100.29 13.3038 100.51 13.9102 100.949 14.2938C101.387 14.6775 101.89 14.8693 102.456 14.8693C102.819 14.8693 103.162 14.7857 103.487 14.6187C103.811 14.4516 104.075 14.2134 104.279 13.904C104.489 13.5885 104.593 13.2141 104.593 12.781L105.91 12.8552C105.91 13.7524 105.713 14.5661 105.319 15.2962C104.931 16.0263 104.406 16.608 103.744 17.0411C103.083 17.4742 102.345 17.6908 101.531 17.6908ZM104.593 17.4587V2.95215H108V17.4587H104.593Z" fill="#EFF0FF"/>
<path d="M91.6243 17.4586V7.60194H94.9925V17.4586H91.6243ZM93.3036 6.21903C92.7947 6.21903 92.3463 6.08909 91.9582 5.82922C91.5766 5.56934 91.3857 5.20119 91.3857 4.72475C91.3857 4.24213 91.5766 3.87397 91.9582 3.62028C92.3463 3.36041 92.7947 3.23047 93.3036 3.23047C93.8189 3.23047 94.2673 3.36041 94.649 3.62028C95.0307 3.87397 95.2215 4.24213 95.2215 4.72475C95.2215 5.20738 95.0307 5.57863 94.649 5.8385C94.2673 6.09219 93.8189 6.21903 93.3036 6.21903Z" fill="#EFF0FF"/>
<path d="M77.7686 17.4586L81.1559 3.75952H86.5565L89.9342 17.4586H86.442L83.8562 5.75499H83.8752L81.2513 17.4586H77.7686ZM80.4593 14.433V11.8992H87.2721V14.433H80.4593Z" fill="#EFF0FF"/>
<path d="M73.882 17.6816C73.4685 17.6816 73.0359 17.6476 72.5843 17.5795C72.1326 17.5177 71.7128 17.3877 71.3248 17.1897C70.9368 16.9917 70.6219 16.6947 70.3802 16.2987C70.1384 15.9027 70.0176 15.3768 70.0176 14.7209C70.0176 14.5786 70.0176 14.4394 70.0176 14.3033C70.0176 14.1609 70.0176 14.0186 70.0176 13.8763V10.1081H67.718V7.60219H68.0711C68.51 7.60219 68.8598 7.58363 69.1206 7.54651C69.3815 7.50938 69.5755 7.41657 69.7027 7.26807C69.8299 7.11957 69.9126 6.89063 69.9508 6.58126C69.9953 6.26569 70.0176 5.82947 70.0176 5.2726V4.36304H73.4335V7.60219H76.296V10.1081H73.4335V13.2359C73.4335 13.3411 73.4335 13.4432 73.4335 13.5422C73.4335 13.635 73.4335 13.7309 73.4335 13.8299C73.4335 14.2197 73.4812 14.5446 73.5766 14.8044C73.672 15.0643 73.9201 15.1943 74.3209 15.1943C74.5435 15.1943 74.7534 15.1726 74.9506 15.1293C75.1478 15.086 75.2941 15.0458 75.3896 15.0086V17.4403C75.2496 17.496 75.0492 17.5486 74.7884 17.5981C74.5276 17.6538 74.2255 17.6816 73.882 17.6816Z" fill="#EFF0FF"/>
<path d="M61.7458 17.6906C61.1415 17.6906 60.5531 17.6225 59.9806 17.4864C59.4145 17.3503 58.8992 17.1461 58.4349 16.8739C57.9769 16.5954 57.6079 16.2489 57.328 15.8344C57.0545 15.4198 56.9177 14.9372 56.9177 14.3865C56.9177 14.3679 56.9177 14.3463 56.9177 14.3215C56.9177 14.2968 56.9177 14.2751 56.9177 14.2565H60.2955C60.2955 14.2751 60.2955 14.2937 60.2955 14.3122C60.2955 14.3308 60.2955 14.3494 60.2955 14.3679C60.2955 14.6773 60.4323 14.9 60.7058 15.0362C60.9857 15.1723 61.3642 15.2404 61.8412 15.2404C62.0575 15.2404 62.277 15.2187 62.4996 15.1754C62.7286 15.1259 62.9195 15.0485 63.0721 14.9434C63.2312 14.832 63.3107 14.6928 63.3107 14.5257C63.3107 14.2596 63.1453 14.0709 62.8145 13.9595C62.4901 13.8482 61.9398 13.7306 61.1638 13.6069C60.7185 13.5388 60.2541 13.4367 59.7707 13.3006C59.2936 13.1645 58.8483 12.9819 58.4349 12.753C58.0214 12.524 57.6874 12.2332 57.433 11.8805C57.1785 11.5279 57.0513 11.0947 57.0513 10.5812C57.0513 9.88198 57.2676 9.30036 57.7001 8.8363C58.1327 8.36605 58.7052 8.01026 59.4177 7.76895C60.1365 7.52764 60.9252 7.40698 61.784 7.40698C62.5982 7.40698 63.3584 7.54001 64.0645 7.80608C64.7769 8.07214 65.3526 8.45267 65.7915 8.94767C66.2368 9.44267 66.4594 10.0305 66.4594 10.7111C66.4594 10.7235 66.4594 10.742 66.4594 10.7668C66.4594 10.7854 66.4594 10.8039 66.4594 10.8225H63.1198C63.1198 10.8039 63.1198 10.7854 63.1198 10.7668C63.1198 10.7482 63.1198 10.7328 63.1198 10.7204C63.1198 10.51 63.0499 10.3399 62.9099 10.2099C62.7763 10.08 62.6046 9.98408 62.3947 9.9222C62.1911 9.86033 61.9812 9.82939 61.7649 9.82939C61.5804 9.82939 61.3801 9.85105 61.1638 9.89436C60.9475 9.93148 60.763 9.99955 60.6104 10.0985C60.4577 10.1914 60.3814 10.3306 60.3814 10.5162C60.3814 10.6771 60.4704 10.8132 60.6485 10.9246C60.8266 11.036 61.0715 11.1288 61.3832 11.203C61.6949 11.2711 62.0512 11.336 62.4519 11.3979C62.8463 11.4536 63.282 11.5402 63.7591 11.6578C64.2362 11.7754 64.691 11.9455 65.1236 12.1683C65.5562 12.3848 65.9092 12.6756 66.1827 13.0407C66.4626 13.4058 66.6026 13.8698 66.6026 14.4329C66.6026 15.0269 66.4626 15.5312 66.1827 15.9457C65.9028 16.3603 65.5243 16.6975 65.0473 16.9574C64.5765 17.2111 64.0549 17.3967 63.4824 17.5143C62.9099 17.6318 62.3311 17.6906 61.7458 17.6906Z" fill="#EFF0FF"/>
<path d="M48.0962 17.4586V7.60189H51.5026V11.1288L50.8633 10.6833C50.9523 10.1945 51.0923 9.74895 51.2831 9.34676C51.474 8.93839 51.7189 8.59189 52.0178 8.30726C52.3232 8.01645 52.6762 7.7937 53.077 7.63901C53.4841 7.48433 53.9421 7.40698 54.451 7.40698C54.8644 7.40698 55.1793 7.43483 55.3956 7.49051C55.6182 7.5462 55.7582 7.58951 55.8154 7.62045L55.3097 10.544C55.2525 10.5131 55.1252 10.4667 54.9281 10.4048C54.7309 10.3368 54.486 10.3027 54.1933 10.3027C53.6908 10.3027 53.2646 10.3832 52.9148 10.544C52.5713 10.6987 52.2945 10.9091 52.0846 11.1752C51.8811 11.4412 51.7316 11.7382 51.6362 12.0662C51.5471 12.3941 51.5026 12.722 51.5026 13.05V17.4586H48.0962Z" fill="#EFF0FF"/>
<path d="M42.4361 17.4586V7.60194H45.8043V17.4586H42.4361ZM44.1154 6.21903C43.6065 6.21903 43.158 6.08909 42.77 5.82922C42.3883 5.56934 42.1975 5.20119 42.1975 4.72475C42.1975 4.24213 42.3883 3.87397 42.77 3.62028C43.158 3.36041 43.6065 3.23047 44.1154 3.23047C44.6306 3.23047 45.0791 3.36041 45.4608 3.62028C45.8424 3.87397 46.0333 4.24213 46.0333 4.72475C46.0333 5.20738 45.8424 5.57863 45.4608 5.8385C45.0791 6.09219 44.6306 6.21903 44.1154 6.21903Z" fill="#EFF0FF"/>
<path d="M33.1956 6.27498L34.7318 4.74357V10.3494L33.6822 9.54198H39.4645V12.0572H33.6822L34.7318 11.1848V17.4589H31.335V3.76904H40.3137V6.27498H33.1956Z" fill="#EFF0FF"/>
<path d="M1.79924 2.70105C4.30299 0.202595 8.56082 0.279507 11.1131 2.73134L11.6444 3.25108L12.1757 2.74067C14.728 0.279506 18.9858 0.202595 21.4896 2.70105C23.9221 5.13023 23.8833 8.9829 21.4022 11.3664L20.752 11.991L11.9695 20.4279C11.883 20.5112 11.7656 20.558 11.6432 20.558C11.5208 20.558 11.4034 20.5112 11.3169 20.4279L1.88658 11.3664C-0.594483 8.9829 -0.633315 5.13023 1.79924 2.70105Z" fill="#EFF0FF"/>
</svg>
