<svg width="61" height="27" viewBox="0 0 61 27" fill="none" xmlns="http://www.w3.org/2000/svg">
<path d="M11.5154 11.7739H14.89V7.96135C14.89 6.8966 14.3968 6.3585 13.3878 6.3585H13.0066C12.0087 6.3585 11.5042 6.8966 11.5042 7.96135V11.7739H11.5154ZM11.5154 14.2125L11.5267 18.4029C11.5267 19.4676 12.0312 19.9943 13.0289 19.9943H13.4662C14.464 19.9943 14.9685 19.4676 14.9685 18.4029V16.3421H17.2669V18.2998C17.2669 20.9903 15.9888 22.3642 13.455 22.3642H12.9505C10.4167 22.3642 9.13867 21.0017 9.13867 18.6204V8.37352C9.13867 5.36243 10.4167 4 12.9505 4H13.455C15.9888 4 17.2669 5.36243 17.2669 8.05295L17.2556 14.2011H11.5154V14.2125Z" fill="#EFF0FF"/>
<path d="M21.1781 19.0333C21.8284 19.6286 22.5795 19.9607 23.3642 19.9607C24.2388 19.9607 24.7433 19.5256 24.7433 18.4951V7.84762C24.7433 6.81722 24.2388 6.38215 23.3642 6.38215C22.5795 6.38215 21.8284 6.71417 21.1781 7.30952V19.0333ZM18.8013 4.20684H21.1781V5.37464C21.7386 4.74494 22.7028 4.01221 24.0818 4.01221C26.111 4.01221 27.1088 5.44334 27.1088 7.57284V18.8158C27.1088 20.9453 26.111 22.3764 24.0818 22.3764C22.7028 22.3764 21.7386 21.678 21.1781 21.0826V26.8759H18.8013V4.20684Z" fill="#EFF0FF"/>
<path d="M34.2282 19.1364V13.2172L32.0757 14.0873C31.2012 14.4537 30.9209 14.9231 30.9209 15.9535V18.6784C30.9209 19.5485 31.3246 19.9721 32.0757 19.9721C32.7932 19.9721 33.4546 19.7088 34.2282 19.1364ZM28.5442 15.9078C28.5442 13.6752 29.228 12.7821 31.0442 12.1181L34.2282 10.9503V7.96211C34.2282 6.89735 33.7237 6.33635 32.726 6.33635H32.3448C31.347 6.33635 30.8425 6.89735 30.8425 7.96211V10.5038H28.533V8.06516C28.533 5.37464 29.8111 4.01221 32.3448 4.01221H32.7932C35.327 4.01221 36.6051 5.37464 36.6051 8.06516V22.1703H34.2282V21.0369C33.5781 21.7009 32.6924 22.365 31.3246 22.365C29.4186 22.365 28.5442 21.1971 28.5442 19.205V15.9078Z" fill="#EFF0FF"/>
<path d="M46.2037 22.1696H43.8269V7.69803C43.8269 6.80501 43.4233 6.40429 42.7058 6.40429C42.0555 6.40429 41.3604 6.66762 40.5195 7.29731V22.1696H38.1428V4.20608H40.5195V5.37388C41.2147 4.67549 42.1115 4 43.4233 4C44.6453 4 45.4526 4.5381 45.8898 5.46547C46.7418 4.69839 47.7397 4 49.1074 4C50.946 4 51.8877 5.20215 51.8877 7.15992V22.1581H49.511V7.69803C49.511 6.80501 49.1074 6.40429 48.3898 6.40429C47.7397 6.40429 47.0446 6.66762 46.2037 7.29731V22.1696Z" fill="#EFF0FF"/>
<path d="M0 12.0387V14.4658L6.09891 20.5682V17.1908L2.10771 13.2179L6.09891 9.16496V5.8562L0 12.0387Z" fill="#EFF0FF"/>
<path d="M54.9011 9.16496L58.8923 13.2179L54.9011 17.2022V20.5682L61 14.4658V12.0387L54.9011 5.8562V9.16496Z" fill="#EFF0FF"/>
</svg>
