<svg width="120" height="80" viewBox="0 0 120 80" fill="none" xmlns="http://www.w3.org/2000/svg">
<path fill-rule="evenodd" clip-rule="evenodd" d="M21.841 7.43709C28.5128 7.43738 30.8536 9.77571 30.8536 14.9368C30.8536 28.7224 28.8917 36.3493 28.0903 39.4648L28.0902 39.4649C27.991 39.8507 27.9096 40.1673 27.8518 40.4179C27.4991 41.9496 30.9455 42.428 31.433 41.645C36.5044 33.5017 50.8739 8.95806 50.8739 3.19597C50.8739 1.37038 50.38 -0.000427246 47.1538 -0.000427246C42.4074 -0.000427246 39.288 3.65076 38.6509 4.56463C38.4799 4.80918 38.792 5.25968 39.0978 5.05374C40.0834 4.39086 41.5458 3.55422 43.2904 3.55422C44.3744 3.55422 44.8469 4.41232 44.8469 6.19715C44.8469 11.8092 33.9547 32.7244 32.2432 36.011C32.1692 36.1529 32.1125 36.262 32.0744 36.3355C32.0445 36.3934 31.8692 36.3656 31.9162 36.2433C32.4486 34.8167 35.2322 26.3259 35.2322 13.5017C35.2322 3.84812 28.4719 2.61032 23.7276 2.61032C10.7905 2.61032 0 14.349 0 25.1117C0 31.5023 2.99107 36.5908 10.9209 36.5908C19.6141 36.5908 19.8172 28.1772 19.5585 26.9137C19.4858 26.5575 18.9663 26.5061 18.9171 26.9158C18.6712 28.9881 16.5289 32.9375 10.5318 32.9375C6.8908 32.9375 2.47154 30.8137 2.47154 24.3287C2.47154 15.068 12.8701 7.43761 21.841 7.43709ZM44.5902 33.6329C42.2448 33.6329 41.4131 31.4469 41.4131 30.3528V30.3507C41.4131 23.7905 48.5113 18.0971 51.1945 18.0971C52.8243 18.0971 53.6382 19.507 54.0506 20.2213L54.1 20.3067C54.8783 19.0968 55.6031 18.1293 56.1376 17.608C56.1376 17.608 58.468 17.608 59.3467 19.9763C59.3467 19.9763 53.2106 27.4224 53.2106 32.7211C53.2106 33.4977 53.6938 34.0705 54.0915 34.3258C54.2433 34.4244 54.2347 34.639 54.0786 34.7291C53.5826 35.0144 52.6633 35.437 51.59 35.437C50.4055 35.437 49.3152 34.373 49.3152 32.0347C49.3152 31.3546 49.4541 30.548 49.6893 29.6706C49.5787 29.7981 49.4692 29.9248 49.3608 30.0504C47.6954 31.9783 46.2662 33.6329 44.5902 33.6329ZM53.3539 21.5187C53.3539 21.5187 52.8391 20.9936 52.166 20.9931C49.0809 20.9948 44.5923 27.3327 44.5923 30.0439C44.5923 30.6724 45.0477 30.814 45.3599 30.814C47.1152 30.814 51.5815 24.6229 51.9663 24.0458C52.9947 22.497 53.3539 21.5187 53.3539 21.5187ZM79.3779 32.3607C80.3315 32.0153 81.9906 32.9506 81.9906 34.1412V34.1434C81.9906 35.3425 80.3828 36.8592 79.3095 36.8592C78.8028 36.8592 77.4922 36.2628 77.4922 35.4391C77.4922 34.2871 78.465 32.691 79.3779 32.3607ZM85.8133 11.775C85.8133 13.3389 83.3824 15.6901 82.1658 15.6901L82.168 15.6922C81.6912 15.6922 80.9557 15.6171 80.9557 14.4866C80.9557 12.7146 83.0403 10.254 83.9938 10.254C84.5775 10.254 85.8133 10.7088 85.8133 11.775ZM106.627 37.9276C104.587 37.9276 103.227 38.3244 103.227 38.3244C103.227 38.3244 102.684 37.7495 101.568 37.7495C100.279 37.7495 99.7102 38.5861 99.7102 39.5494C99.7102 40.2616 99.939 40.7206 100.841 41.1583C100.429 43.1233 96.7341 47.6969 94.5084 47.6969C93.8585 47.6969 93.5228 47.2872 93.5228 46.7144C93.5228 45.2397 94.6849 42.9252 95.7411 40.8218C96.6207 39.0699 97.4268 37.4645 97.4268 36.6125C97.4268 35.8145 97.027 34.5724 95.5325 34.5724C92.6077 34.5724 89.5333 37.2904 87.1943 39.9977C87.9234 38.2515 88.3937 36.8721 88.3937 36.3058C88.3937 34.965 87.6411 34.5746 86.7966 34.5746C86.4952 34.5746 85.0755 37.0201 83.4528 40.1007C83.4528 40.1007 77.6096 49.456 74.3406 49.456C73.7334 49.456 73.6906 48.9862 73.6906 48.5658C73.6906 47.2094 75.4416 44.3363 76.8722 41.9888C77.8604 40.3673 78.6957 38.9966 78.6957 38.5497C78.6957 37.7302 77.9453 37.0652 77.0174 37.0652C75.9184 37.0652 74.022 39.6159 72.3929 42.632C72.3929 42.632 67.0585 51.6184 63.5757 51.6184C62.9215 51.6184 62.5217 51.1272 62.5217 50.3055C62.5217 47.5682 67.6166 41.0832 67.6166 41.0832C67.6166 41.0832 70.2698 39.6244 70.2698 38.0348C70.2698 37.2969 69.7353 36.4023 69.0319 36.4023C67.3044 36.4023 66.3423 38.7814 66.3423 38.7814C66.3423 38.7814 64.2128 40.4439 61.9188 40.4439C60.3366 40.4439 60.2939 39.4314 60.2939 39.4314C60.2939 39.4314 60.3965 39.2898 60.3965 38.938C60.3965 38.5475 60.11 38.0134 59.2291 38.0134C58.3483 38.0134 57.3819 38.6612 57.3819 39.8111C57.3819 40.5705 57.5465 41.1776 57.8138 41.6624C56.5481 43.9943 53.5549 47.0405 46.5465 47.0405C37.9218 47.0405 37.0943 50.7968 37.0943 52.0325C37.0943 52.2427 37.1542 52.5495 37.259 52.6803C37.3424 52.7833 37.4535 52.8004 37.5241 52.7018C37.9987 52.0475 39.0292 51.3245 42.0139 50.9598C44.122 50.7625 47.6775 51.0328 47.6775 55.0937C47.6775 61.7482 41.6355 65.335 37.3188 65.335C32.3522 65.335 30.3083 60.7936 30.3083 56.9837C30.3083 47.5918 37.2098 39.9741 46.5978 39.9741C51.1282 39.9741 52.2143 42.1665 52.2143 43.0954C52.2143 43.2863 52.1866 43.3979 52.1288 43.533C52.0968 43.606 52.1588 43.8055 52.364 43.724C52.6206 43.6253 53.8029 42.7286 53.8029 41.45C53.8029 38.1635 50.4697 37.063 47.1409 37.063C35.788 37.063 25.8848 45.7255 25.8848 57.4749C25.8848 60.1822 27.3258 68.0144 35.8415 68.0144C45.9949 68.0144 51.93 60.3452 51.93 55.4155C51.93 52.9764 51.1881 51.3374 49.9801 50.3549C54.8719 49.2136 57.5829 45.5989 58.9811 42.8337C59.753 43.2799 60.6595 43.4215 61.3607 43.4215C62.6158 43.4215 63.2443 42.9946 63.2443 42.9946C63.2443 42.9946 58.267 48.6516 58.267 51.9874C58.267 53.2316 58.5942 55.5893 61.4185 55.5893C64.2428 55.5893 67.3472 52.4508 69.5792 49.456C69.436 50.0631 69.3548 50.6037 69.3548 51.0478C69.3548 52.2491 70.0753 53.6628 72.1491 53.6628C74.3577 53.6628 77.1628 50.9277 79.5082 48.038C78.5247 50.1725 77.8469 51.8287 77.8469 52.2706C77.8469 53.0858 78.3921 53.6328 79.3521 53.6328C80.0512 53.6328 81.8536 50.7754 83.6645 47.3623C83.6645 47.3623 88.8705 37.9898 93.17 37.9898C93.4907 37.9898 93.6297 38.1914 93.6297 38.5497C93.6297 39.1223 93.0575 40.1781 92.3544 41.4752L92.3544 41.4753C91.2348 43.541 89.7834 46.2188 89.7834 48.5314C89.7834 50.563 91.3399 51.065 92.364 51.065C99.0068 51.065 103.172 40.7464 103.172 40.7464C103.172 40.7464 104.29 40.3367 106.257 40.3367C111.061 40.3367 111.989 41.952 111.989 42.9388C111.989 47.6945 97.987 51.985 82.8817 56.6136C65.1918 62.0343 45.9885 67.9187 45.9885 75.5571C45.9885 78.0177 47.2606 79.6588 49.1206 79.9805C50.241 80.1736 50.9935 78.9036 50.9615 78.318C48.6973 78.318 47.4851 77.0716 47.4851 76.295C47.4851 71.8627 59.7045 68.3943 73.6261 64.4427C92.0539 59.212 113.464 53.1349 113.464 42.8552C113.464 38.9122 109.78 37.9254 106.614 37.9254L106.627 37.9276ZM114.884 18.5282C115.273 18.3716 115.925 18.1893 116.466 18.1893V18.1914C117.422 18.1914 120 18.7084 120 21.272C120 23.8356 115.033 34.0061 105.699 34.0061C102.586 34.0061 100.794 31.346 100.794 28.8061C100.794 26.0417 102.39 22.8228 103.537 20.5103C104.18 19.2138 104.681 18.2022 104.681 17.7152C104.681 17.357 104.412 17.1832 104.091 17.1832C100.869 17.1832 96.4241 25.9036 96.4241 25.9036C95.8426 27.1135 95.2888 28.2075 94.8463 29.0099C94.6303 29.4003 94.2006 29.6877 93.758 29.6877C92.1053 29.6877 91.7162 28.7224 91.9899 28.1754C93.7751 24.5907 96.035 19.6094 96.035 18.599C96.035 18.2408 95.896 18.0391 95.5753 18.0391C93.215 18.0391 87.1835 27.2524 86.9632 27.5889C86.9592 27.595 86.9571 27.5981 86.957 27.5983C86.8031 27.9179 86.6534 28.2333 86.508 28.54C86.0248 29.5633 85.2274 30.8118 84.6309 30.8118C83.6709 30.8118 83.1257 30.2648 83.1257 29.4496C83.1257 29.0099 83.6773 27.5296 84.4919 25.6418C81.8835 28.9198 78.4627 32.0518 74.9136 32.0518C72.3459 32.0518 72.1214 30.2069 72.1214 29.0056C72.1214 28.7589 72.1492 28.4864 72.1983 28.1947C70.0903 31.035 67.6423 33.6328 65.7351 33.6328C64.8244 33.6328 63.6078 33.4269 63.6078 30.8183C63.6078 29.9988 63.734 29.0699 63.9649 28.0638C62.479 30.2412 60.4179 32.6138 58.498 32.6138C57.2964 32.6138 56.7106 30.9513 56.7106 29.8744C56.7106 23.3207 61.8782 17.1896 67.0457 17.1896C67.6316 17.1896 68.0934 17.3033 68.4483 17.4513C72.4913 10.2755 78.0159 3.55882 80.7055 3.55882C81.1481 3.55882 81.5714 3.89562 81.5714 4.50487C81.5714 6.91611 71.1742 18.6849 71.1742 18.6849C71.1742 18.6849 67.2574 25.3866 67.2574 28.7074C67.2574 29.3853 67.5525 29.5612 67.9758 29.5612C69.5365 29.5612 76.1109 19.8862 76.1109 19.8862L76.1216 19.9012C77.5348 17.8396 78.963 16.3036 79.7391 16.3036C81.1331 16.3036 81.5158 16.9365 81.5158 17.5672C81.5158 18.0927 80.5013 19.6945 79.3568 21.5016C77.8758 23.8398 76.1772 26.5218 76.1772 27.6605C76.1772 28.274 76.6796 28.3019 76.9041 28.3019C81.8301 28.3019 88.4643 17.4342 88.4643 17.4342C89.6402 15.2589 90.6579 13.6672 91.0534 13.6672C91.9429 13.6672 92.6505 14.0018 92.6505 15.1109C92.6505 15.718 91.8873 17.4814 90.8332 19.6888C92.9477 17.1424 95.6694 14.6196 98.1495 14.6196C99.644 14.6196 100.044 15.8617 100.044 16.6598C100.044 17.0051 99.8834 17.6315 99.6119 18.4317C101.416 15.9776 103.832 13.665 106.535 13.665C108.031 13.665 108.551 14.8234 108.551 15.6215C108.551 16.7288 107.626 18.9388 106.636 21.3035C105.497 24.0237 104.273 26.9486 104.273 28.6344C104.273 29.9623 104.39 31.7322 106.573 31.7322C111.104 31.7322 116.126 24.1852 116.126 20.5298C116.126 19.6588 115.801 18.8672 114.929 18.8672C114.691 18.8672 114.663 18.6183 114.884 18.5282ZM60.9695 28.6988C62.5623 28.6988 65.47 23.5116 65.47 23.5116V23.5138C66.0665 22.07 66.7785 20.5705 67.5696 19.0688C67.3921 19.0174 67.1869 18.983 66.9495 18.983C64.1552 18.983 60.4179 25.1785 60.4179 27.8193C60.4179 28.3405 60.4821 28.6988 60.9695 28.6988Z" fill="#E4E5F9"/>
</svg>
